<?xml version="1.0" standalone="no"?>
<!DOCTYPE svg PUBLIC "-//W3C//DTD SVG 20010904//EN"
 "http://www.w3.org/TR/2001/REC-SVG-20010904/DTD/svg10.dtd">
<svg version="1.0" xmlns="http://www.w3.org/2000/svg"
 width="1366.000000pt" height="1366.000000pt" viewBox="0 0 1366.000000 1366.000000"
 preserveAspectRatio="xMidYMid meet">
<metadata>
Created by potrace 1.16, written by Peter Selinger 2001-2019
</metadata>
<g transform="translate(0.000000,1366.000000) scale(0.100000,-0.100000)"
fill="#000000" stroke="none">
<path d="M6571 13524 c-12 -15 -21 -35 -21 -46 0 -11 -5 -16 -11 -13 -6 4 -13
-2 -16 -14 -7 -26 -20 -27 -25 -3 -3 14 -5 13 -10 -6 -3 -12 -2 -20 3 -16 5 3
9 1 9 -5 0 -5 -4 -13 -10 -16 -5 -3 -10 -16 -10 -28 1 -18 5 -15 20 15 25 46
46 62 37 27 -4 -13 -7 -28 -7 -32 0 -5 -5 -5 -10 -2 -6 4 -13 -7 -16 -24 -8
-39 -22 -39 -35 -1 -12 32 -29 32 -29 -1 0 -10 -4 -19 -8 -19 -5 0 -14 -10
-21 -22 -11 -21 -11 -21 -5 7 3 17 10 32 15 33 14 5 11 32 -3 32 -7 0 -20 -6
-29 -13 -22 -17 -89 -117 -89 -133 0 -7 -4 -16 -10 -19 -6 -4 -7 7 -4 27 l6
33 -21 -32 c-11 -17 -29 -37 -40 -43 -12 -6 -21 -17 -21 -24 0 -8 -8 -20 -17
-27 -11 -10 -14 -10 -9 -1 4 6 2 12 -3 12 -6 0 -11 -4 -11 -10 0 -5 -5 -10
-10 -10 -11 0 -3 47 10 65 7 9 80 184 80 192 0 9 -27 -5 -38 -20 -7 -9 -18
-15 -23 -11 -6 3 -17 -3 -25 -15 -8 -12 -21 -21 -29 -21 -8 0 -19 -9 -25 -20
-13 -25 -30 -26 -30 -2 -1 16 -2 16 -15 -1 -7 -11 -11 -26 -8 -35 4 -13 2 -12
-9 2 -9 11 -13 28 -10 38 2 10 -4 28 -13 38 -10 12 -13 20 -7 20 7 0 12 8 12
18 0 9 8 22 18 28 9 6 25 27 35 45 14 26 4 19 -41 -30 -61 -66 -66 -82 -33
-108 14 -11 12 -12 -11 -13 -14 0 -34 -3 -44 -7 -13 -5 -15 -3 -9 8 8 12 6 12
-8 0 -9 -7 -17 -20 -17 -28 0 -8 -8 -28 -17 -46 -23 -45 -24 -128 -1 -145 10
-7 23 -23 29 -35 12 -21 12 -21 -15 -4 -25 17 -26 17 -26 0 0 -15 -4 -14 -20
7 -10 14 -22 22 -26 18 -4 -4 -1 -15 7 -25 12 -15 12 -16 -3 -10 -11 4 -18 2
-18 -6 0 -8 -4 -7 -10 3 -7 11 -12 12 -21 3 -6 -6 -18 -9 -25 -6 -10 4 -13 0
-8 -13 4 -12 -3 -9 -20 11 l-25 29 -20 -21 c-26 -27 -7 -52 21 -26 19 17 24 8
9 -16 -8 -13 2 -48 31 -104 7 -14 5 -22 -9 -33 -23 -17 -28 -17 -47 2 -17 16
-61 10 -51 -7 4 -5 0 -16 -8 -24 -13 -12 -15 -10 -21 15 -7 38 -23 39 -29 3
-4 -27 -4 -27 -12 -5 -6 18 -25 32 -25 17 0 -11 24 -55 30 -55 4 0 10 -9 13
-20 3 -13 0 -20 -10 -20 -9 0 -13 6 -10 14 3 8 -4 22 -15 33 -21 18 -21 17
-14 -1 5 -16 4 -17 -9 -6 -12 10 -13 15 -4 21 9 5 6 16 -10 38 -31 43 -57 56
-67 33 -4 -9 -6 -21 -5 -26 1 -5 -4 -6 -11 -3 -9 3 -14 -3 -14 -14 0 -22 12
-25 19 -6 4 8 6 9 6 0 1 -6 -5 -18 -13 -25 -8 -8 -15 -22 -17 -32 -5 -24 -22
-23 -35 4 -12 22 -12 21 -19 -10 -5 -24 -10 -29 -16 -19 -10 17 -24 4 -34 -31
-4 -17 -3 -21 3 -11 5 7 16 11 23 8 8 -3 -3 -12 -28 -23 -24 -11 -46 -27 -49
-37 -3 -10 -8 -16 -11 -13 -3 3 9 36 26 73 l32 68 -37 -35 c-37 -35 -38 -24
-2 16 29 33 55 89 48 108 -5 14 -7 14 -23 -4 -10 -12 -15 -25 -12 -30 4 -6 2
-10 -4 -10 -6 0 -14 -15 -19 -32 -4 -18 -15 -33 -23 -33 -15 0 -20 -42 -7 -61
5 -7 -1 -10 -15 -10 -19 1 -22 -5 -25 -38 -3 -29 -6 -36 -13 -25 -6 10 -8 7
-7 -13 1 -16 6 -28 10 -28 4 0 5 -9 3 -20 -5 -25 10 -26 24 -2 6 9 11 12 11 5
0 -6 -5 -15 -11 -18 -6 -4 -8 -13 -5 -21 5 -13 -18 -20 -47 -15 -10 2 1 -39
16 -57 15 -19 -1 -27 -20 -10 -42 36 -46 34 -41 -20 3 -36 2 -49 -6 -45 -6 3
-5 0 2 -8 15 -17 16 -33 0 -23 -8 5 -9 2 -4 -12 4 -10 9 -28 10 -40 2 -11 6
-26 10 -32 4 -7 3 -12 -3 -12 -5 0 -15 8 -20 18 -6 9 -11 13 -11 8 0 -5 9 -24
21 -42 11 -19 18 -38 14 -43 -3 -6 8 -17 25 -26 16 -8 29 -19 27 -23 -3 -11
40 -51 49 -44 4 4 4 -6 0 -22 -7 -27 -6 -28 28 -24 19 2 32 0 30 -4 -3 -4 -13
-8 -22 -8 -13 0 -14 -2 -4 -9 10 -6 7 -12 -13 -25 -15 -10 -29 -15 -33 -12 -3
3 0 6 6 6 7 0 12 4 12 10 0 6 -10 5 -25 -2 -13 -6 -22 -16 -18 -22 3 -6 3 -8
-1 -4 -12 10 -45 -23 -39 -41 4 -13 3 -13 -5 -2 -8 11 -14 9 -36 -10 -14 -12
-33 -33 -41 -45 -14 -22 -14 -23 22 -17 20 4 52 17 71 29 19 13 38 22 42 19
11 -7 33 22 25 35 -3 5 -3 10 2 10 4 0 28 19 53 41 25 23 39 38 33 35 -9 -5
-11 -2 -7 8 3 9 10 16 16 16 5 0 7 4 4 8 -2 4 4 9 15 9 10 1 19 -2 19 -8 0 -5
-4 -9 -10 -9 -5 0 -10 -7 -10 -15 0 -8 -16 -31 -36 -50 -20 -20 -34 -38 -32
-40 7 -7 109 86 107 98 -3 25 2 37 14 35 6 -2 11 2 10 9 -2 7 6 10 20 6 12 -2
30 -5 41 -4 17 0 17 -1 2 -18 -23 -25 -20 -38 4 -16 11 10 20 24 20 32 0 7 7
13 15 13 7 0 18 7 23 16 6 11 12 13 16 6 4 -6 -9 -34 -29 -62 -19 -27 -35 -54
-35 -60 0 -21 27 -9 39 18 34 72 47 96 56 99 16 5 16 -35 0 -41 -8 -3 -12 -14
-10 -27 5 -27 -11 -59 -31 -59 -8 0 -29 -7 -46 -16 -16 -9 -27 -11 -24 -5 4 6
2 11 -3 11 -6 0 -11 -7 -11 -15 0 -8 -6 -12 -14 -9 -8 3 -17 0 -21 -6 -5 -8
-11 -8 -21 1 -11 9 -14 9 -14 -1 0 -7 -7 -10 -15 -6 -8 3 -15 1 -15 -4 0 -5
-6 -15 -13 -22 -7 -7 -19 -22 -26 -33 -12 -19 -12 -19 -6 2 13 46 -12 28 -40
-30 -25 -50 -31 -57 -33 -36 -2 13 -8 29 -14 36 -5 7 -6 18 -2 24 4 8 3 9 -4
5 -7 -4 -12 -2 -12 5 0 16 -54 -34 -91 -85 -16 -21 -29 -46 -29 -55 1 -10 7
-5 16 12 20 37 34 34 24 -5 -5 -18 -11 -51 -14 -73 -3 -22 -9 -60 -12 -85 -6
-38 -5 -43 7 -33 12 10 14 6 13 -24 -1 -20 4 -57 12 -82 8 -25 14 -58 14 -73
0 -16 5 -28 10 -28 6 0 10 -6 10 -13 0 -8 11 -24 25 -37 13 -12 29 -38 35 -56
6 -18 17 -35 25 -38 8 -3 15 -17 15 -31 0 -15 4 -24 9 -21 9 6 20 -19 27 -64
7 -40 13 -52 24 -45 6 4 10 -6 10 -24 0 -19 5 -31 13 -31 18 0 52 -38 44 -47
-4 -4 -14 2 -22 13 -12 15 -14 16 -15 3 0 -8 14 -22 32 -30 31 -14 54 -45 25
-33 -37 14 -24 -21 27 -71 61 -61 80 -69 70 -29 -6 22 -4 25 12 22 13 -2 20
-13 21 -33 1 -17 4 -39 6 -50 13 -64 18 -94 21 -130 4 -48 35 -123 44 -108 4
6 6 82 5 169 -2 132 -5 161 -18 170 -12 9 -13 13 -3 16 9 3 14 32 17 93 2 62
0 86 -8 81 -6 -4 -11 -3 -11 3 0 5 4 11 10 13 8 2 26 87 33 151 1 9 4 17 8 17
3 0 11 11 17 25 6 14 7 25 2 25 -5 0 7 23 26 51 19 28 34 62 34 75 0 13 4 24
10 24 5 0 13 12 16 26 4 16 9 21 14 14 4 -7 13 -2 25 16 12 19 14 29 6 34 -7
4 -9 15 -5 25 5 13 4 16 -5 11 -14 -9 -8 36 15 118 19 68 19 85 -2 60 -14 -18
-15 -16 -8 26 4 25 8 60 8 78 1 29 2 30 14 15 29 -40 53 -63 64 -63 10 0 10 2
0 9 -30 19 -56 101 -32 101 6 0 10 6 10 14 0 7 6 19 14 25 17 15 40 -11 34
-37 -3 -11 0 -19 8 -19 7 0 11 4 8 9 -14 23 18 4 41 -24 21 -26 24 -28 15 -8
-7 14 -26 40 -44 59 -17 19 -25 31 -18 27 16 -9 16 16 0 32 -9 9 -8 12 4 12 9
0 26 11 39 25 13 13 30 25 38 25 7 0 11 6 8 15 -10 26 9 25 49 -2 34 -23 36
-23 20 -5 -17 20 -18 22 -2 22 9 0 15 3 13 8 -8 13 12 52 27 52 7 0 17 11 20
25 4 14 11 23 16 20 5 -3 6 -13 3 -23 -7 -16 -6 -16 19 0 22 15 27 15 32 3 3
-8 3 -22 -1 -31 -5 -14 -3 -14 16 -3 11 8 21 17 21 22 0 4 -4 5 -10 2 -5 -3
-10 -1 -10 4 0 6 5 11 12 11 6 0 19 7 29 16 16 15 17 14 12 -5 -6 -23 -10 -24
70 13 26 11 47 14 63 9 23 -8 23 -9 9 -37 -19 -37 -19 -39 5 -26 14 8 20 8 20
0 0 -6 5 -8 10 -5 6 3 10 1 10 -4 0 -6 9 -11 20 -11 11 0 20 5 20 12 0 6 3 9
6 6 3 -4 1 -16 -6 -27 -15 -28 2 -27 38 4 22 18 32 21 40 13 9 -9 12 -8 12 3
0 25 36 39 85 32 35 -4 45 -3 45 8 0 11 2 11 10 -1 5 -8 12 -11 16 -7 4 4 13
2 21 -4 10 -9 13 -8 13 4 0 10 6 14 15 11 8 -4 15 -10 15 -16 0 -5 -4 -6 -10
-3 -5 3 -10 1 -10 -4 0 -16 42 -13 67 4 12 8 29 12 39 8 11 -4 15 -3 11 4 -10
16 19 24 48 13 16 -6 23 -15 19 -25 -3 -8 -1 -15 5 -15 6 0 11 5 11 10 0 6 18
1 40 -10 24 -12 40 -16 40 -9 0 6 6 9 13 6 6 -2 19 -1 28 4 11 6 21 4 29 -6 9
-11 9 -15 1 -15 -6 0 -11 -5 -11 -11 0 -5 4 -7 10 -4 13 8 110 -47 110 -62 0
-7 11 -15 25 -19 33 -8 54 -33 26 -31 -11 0 -17 5 -15 9 7 10 -7 10 -24 0 -9
-6 -4 -14 18 -30 16 -13 30 -19 30 -15 0 4 14 9 30 10 27 2 29 0 20 -17 -5
-10 -7 -26 -3 -36 6 -16 7 -16 15 2 8 18 8 18 5 -1 -1 -14 -12 -22 -37 -26
l-35 -6 30 -3 c17 -1 36 -1 44 0 8 1 18 -4 22 -12 7 -11 9 -11 9 1 0 11 3 11
18 0 9 -7 14 -9 9 -4 -4 5 6 14 23 22 26 10 36 10 65 -4 l35 -17 -27 -30 -28
-29 36 26 c40 30 81 38 59 12 -9 -11 -9 -15 -1 -15 6 0 14 7 17 15 9 22 24 18
24 -5 0 -11 7 -20 15 -20 23 0 18 -19 -7 -30 -21 -8 -20 -9 10 -9 21 -1 32 -6
32 -15 0 -8 5 -18 12 -22 8 -5 9 -1 4 12 -6 15 -5 16 5 7 9 -9 9 -15 1 -26 -9
-11 -9 -24 3 -57 18 -50 18 -53 5 -45 -5 3 -10 2 -10 -3 0 -6 7 -12 15 -16 8
-3 15 -14 15 -24 0 -10 20 -41 45 -68 25 -27 45 -55 45 -64 0 -8 16 -32 35
-54 19 -21 35 -46 35 -55 0 -9 4 -21 8 -27 8 -8 30 -73 39 -114 11 -49 23
-268 29 -539 4 -171 11 -311 16 -311 4 0 8 -8 7 -17 0 -11 -3 -13 -6 -5 -8 20
-20 14 -28 -15 -5 -16 -10 -35 -13 -43 -2 -8 -4 -25 -4 -37 0 -13 -5 -23 -10
-23 -6 0 -8 -7 -4 -15 3 -8 1 -15 -4 -15 -6 0 -10 -9 -10 -19 0 -11 -4 -23
-10 -26 -6 -3 -7 1 -4 9 3 9 2 16 -4 16 -13 0 -23 -38 -11 -46 14 -8 11 -21
-6 -21 -8 0 -12 5 -9 11 3 6 -2 2 -11 -9 -13 -16 -19 -17 -34 -8 -22 13 -31 8
-31 -19 0 -10 -7 -18 -16 -18 -12 0 -15 -7 -12 -25 4 -20 3 -23 -8 -14 -10 8
-14 8 -14 0 0 -15 -27 -14 -34 2 -3 9 -9 7 -19 -5 -8 -10 -24 -18 -36 -18 -11
0 -20 -6 -18 -12 1 -7 -4 -12 -10 -11 -7 2 -13 -5 -13 -15 0 -14 -2 -15 -10
-2 -6 9 -6 18 0 24 6 6 10 21 10 34 0 18 -4 23 -16 18 -11 -4 -15 -2 -11 8 3
8 -5 18 -20 25 -16 7 -23 17 -19 26 3 8 9 21 12 29 3 8 -4 24 -16 36 -11 11
-18 25 -15 30 3 5 1 11 -5 15 -6 4 -5 12 5 21 8 9 15 19 15 24 0 9 -18 23 -35
26 -5 1 -27 9 -47 18 -32 14 -38 14 -38 2 0 -7 -9 -16 -20 -19 -21 -5 -19 -32
5 -52 10 -8 9 -13 -1 -23 -8 -7 -14 -8 -14 -3 0 6 -6 8 -14 5 -8 -3 -17 -1
-20 5 -4 6 -13 8 -20 5 -8 -3 -17 -1 -20 5 -4 7 -15 7 -31 1 -16 -6 -27 -6
-31 1 -4 8 -9 7 -15 -2 -7 -11 -9 -10 -9 3 0 9 -4 20 -10 23 -6 4 -7 -1 -3
-12 6 -16 5 -17 -11 -3 -22 18 -51 35 -93 55 -17 8 -34 19 -37 24 -3 5 -15 7
-26 4 -11 -3 -31 2 -44 11 -16 10 -26 12 -28 5 -7 -20 -117 -10 -144 12 -9 7
-19 7 -33 -1 -12 -6 -21 -7 -21 -2 0 6 -9 12 -20 15 -11 3 -20 1 -20 -4 0 -5
-9 -1 -20 8 -13 11 -16 19 -9 24 8 4 7 8 -2 12 -10 4 -9 6 3 6 9 1 22 -7 27
-16 6 -10 11 -14 11 -9 0 5 8 2 18 -5 9 -7 1 4 -18 24 -19 21 -44 40 -56 43
-29 7 -64 -12 -64 -34 0 -23 -19 -42 -42 -42 -24 0 -23 -14 4 -32 14 -9 22
-26 23 -46 1 -27 -2 -32 -21 -32 -12 0 -28 -8 -35 -17 -12 -16 -12 -17 1 -6 9
7 25 11 37 11 16 -2 19 -7 14 -27 -4 -14 -13 -27 -20 -29 -8 -3 -11 0 -8 5 3
5 2 15 -3 23 -7 12 -10 11 -16 -3 -4 -11 0 -25 10 -36 20 -22 21 -38 1 -21 -8
6 -20 8 -26 4 -8 -5 -9 -3 -4 6 5 9 2 10 -13 6 -11 -4 -23 -2 -27 4 -11 17
-50 11 -69 -12 -19 -21 -20 -21 -26 -3 -6 17 -8 17 -16 4 -12 -21 -54 -43 -54
-29 0 5 -5 10 -12 10 -9 0 -9 -3 0 -12 20 -20 15 -40 -9 -33 -14 5 -25 1 -35
-12 -14 -17 -14 -17 -8 0 4 10 16 23 28 27 17 7 18 9 4 9 -19 1 -26 21 -8 21
6 0 10 4 10 8 0 17 -30 8 -36 -10 -3 -10 -16 -30 -30 -45 -28 -31 -31 -45 -6
-37 12 4 11 0 -6 -15 -13 -11 -21 -25 -18 -30 3 -5 -2 -7 -11 -5 -12 3 -22 -3
-28 -18 -5 -12 -21 -25 -35 -28 -20 -5 -22 -8 -10 -15 8 -5 27 -8 43 -6 32 3
49 -25 25 -43 -8 -6 -13 -17 -10 -25 3 -9 0 -11 -8 -6 -9 5 -11 4 -6 -3 9 -16
-4 -83 -15 -76 -5 3 -6 -2 -3 -10 4 -10 1 -16 -9 -16 -10 0 -13 8 -11 28 2 15
1 21 -2 15 -3 -7 -10 -13 -15 -13 -6 0 -7 5 -3 12 4 7 3 8 -5 4 -6 -4 -9 -11
-6 -16 3 -5 1 -11 -5 -15 -5 -3 -11 0 -11 7 -3 28 4 53 14 60 6 4 9 9 6 13 -3
3 -19 -5 -35 -17 l-29 -23 17 27 c11 16 14 29 8 33 -6 3 -10 1 -10 -5 0 -7 -7
-9 -16 -6 -8 3 -12 2 -9 -4 10 -16 -11 -12 -25 5 -7 9 -8 15 -2 15 5 0 12 6
15 14 4 10 0 12 -14 9 -11 -3 -19 0 -19 8 0 7 -3 9 -7 6 -3 -4 -12 1 -19 11
-7 9 -16 13 -20 9 -5 -4 -2 -12 5 -16 9 -6 10 -11 2 -15 -18 -11 -31 3 -31 35
0 16 -4 29 -10 29 -5 0 -10 8 -10 18 0 10 -3 13 -8 6 -4 -6 -17 -16 -29 -23
-20 -10 -23 -9 -23 9 0 14 -4 19 -12 14 -7 -5 -9 -2 -6 8 4 9 -6 26 -23 42
-16 15 -29 23 -29 17 0 -24 -18 -9 -24 20 -3 17 -10 28 -15 25 -11 -7 -28 13
-33 39 -6 37 -22 34 -45 -7 -29 -50 -32 -81 -4 -50 30 36 31 25 4 -35 -15 -32
-27 -69 -28 -83 -1 -14 -5 -36 -9 -49 -6 -16 -5 -21 3 -17 10 7 15 -9 13 -44
0 -7 7 -28 16 -45 19 -37 21 -45 23 -117 1 -32 4 -58 8 -58 3 0 4 -25 3 -56
-3 -35 0 -54 6 -50 13 8 10 -27 -3 -37 -6 -4 -1 -7 10 -5 12 2 20 -3 21 -12 0
-8 2 -20 2 -25 2 -12 41 -13 59 -2 6 4 13 0 17 -8 3 -9 0 -15 -7 -15 -7 0 -22
-6 -33 -14 -19 -14 -19 -15 0 -33 13 -12 17 -13 12 -3 -4 8 1 6 11 -6 10 -11
25 -23 33 -27 12 -4 12 -6 -2 -6 -9 -1 -20 4 -23 9 -3 6 -11 10 -17 10 -6 0
-5 -6 2 -16 8 -8 23 -35 35 -60 12 -24 25 -41 29 -37 4 4 4 -1 0 -10 -4 -13 0
-23 15 -33 11 -8 21 -22 21 -30 0 -8 6 -13 13 -11 6 1 11 -6 9 -15 -2 -11 3
-18 12 -18 9 0 13 -6 10 -14 -3 -8 3 -20 13 -27 10 -8 30 -30 44 -49 38 -50
99 -115 99 -105 0 5 10 -1 23 -13 13 -12 27 -19 30 -15 4 3 7 -1 7 -10 0 -8
-3 -17 -7 -20 -5 -2 -3 -2 4 -1 24 6 72 -17 66 -32 -3 -9 2 -14 16 -14 19 0
65 -26 97 -55 6 -6 31 -19 55 -30 56 -24 56 -24 40 -34 -10 -7 -8 -13 10 -30
24 -22 55 -29 43 -9 -5 7 -3 8 5 4 7 -5 10 -15 7 -23 -6 -15 13 -14 58 3 9 3
16 1 16 -6 0 -6 4 -9 9 -6 5 3 8 -2 7 -12 -1 -11 7 -18 23 -20 19 -3 21 -6 10
-14 -10 -7 -4 -8 19 -4 24 4 34 2 38 -9 4 -9 19 -15 35 -15 17 0 56 -14 89
-31 38 -20 66 -28 80 -24 11 3 20 2 20 -4 0 -6 11 -7 28 -1 23 6 31 4 40 -11
15 -24 15 -27 -3 -32 -11 -4 -10 -4 2 -3 12 1 18 10 17 26 -1 14 3 28 9 32 7
4 7 11 -1 21 -10 12 -6 14 28 12 22 -1 40 2 40 7 0 5 8 7 18 4 9 -3 24 -1 32
4 12 7 8 10 -15 11 -16 0 -24 3 -17 6 28 11 11 25 -24 20 -33 -6 -35 -5 -18 8
24 18 44 18 67 1 14 -11 15 -15 5 -19 -7 -3 -3 -6 10 -6 24 -1 31 23 10 33 -7
3 -1 3 15 0 20 -5 27 -2 27 10 0 9 8 16 20 16 22 0 27 -15 8 -23 -8 -3 -6 -6
5 -6 12 -1 17 7 17 27 0 21 2 24 10 12 8 -13 13 -13 31 -2 27 17 38 6 13 -13
-18 -15 -18 -15 6 -13 21 3 25 8 25 35 1 40 2 41 61 52 26 5 50 14 52 20 2 6
9 8 14 5 6 -4 8 -3 5 3 -3 5 5 21 17 36 24 27 51 28 68 3 5 -6 8 -2 8 10 0 14
8 24 23 29 14 4 17 8 9 12 -10 4 -10 8 -1 19 13 16 33 19 24 4 -3 -5 -2 -10 4
-10 5 0 14 6 18 13 4 7 32 29 61 47 30 19 49 36 43 38 -5 2 21 36 60 75 38 40
69 78 69 85 0 7 7 15 15 18 8 4 15 13 15 20 0 8 7 17 15 20 8 4 15 12 15 20 0
7 11 25 25 40 14 15 25 37 25 49 0 13 7 28 15 35 9 7 14 21 13 30 -2 9 3 24
11 34 14 17 33 96 22 96 -9 0 -11 143 -2 155 12 15 20 56 10 49 -12 -7 -11 10
1 22 6 6 12 40 14 76 1 36 6 70 10 76 5 8 2 10 -9 6 -11 -5 -14 -2 -9 10 3 9
10 16 15 16 5 0 9 21 9 46 0 25 4 43 8 40 7 -4 7 266 0 304 -2 8 3 43 11 77 9
43 11 70 4 90 -6 15 -8 43 -5 61 4 28 7 31 20 20 14 -12 14 -10 1 12 -16 29
-20 60 -8 60 5 0 9 5 9 11 0 5 -4 7 -10 4 -16 -10 -15 133 1 149 5 6 9 19 8
30 0 21 0 21 -10 1 -8 -17 -9 -17 -4 5 2 14 5 33 5 43 0 9 15 32 33 50 27 26
58 85 62 117 0 3 3 10 6 15 4 6 12 42 19 80 15 85 58 232 70 240 4 3 11 23 15
45 4 22 11 43 16 46 6 3 7 19 4 35 -4 19 -3 29 5 29 7 0 10 -7 5 -17 -4 -13
-3 -15 5 -7 6 6 13 32 16 58 4 37 2 46 -10 46 -15 0 -18 4 -20 33 -1 6 -5 15
-10 18 -5 4 -5 12 -1 18 5 9 11 7 20 -6 11 -14 16 -16 26 -5 11 10 10 12 -4
12 -18 0 -20 7 -17 53 1 15 -3 27 -9 27 -6 0 -11 5 -11 10 0 6 6 10 13 10 6 0
17 11 24 25 6 14 7 25 2 25 -12 0 -7 53 5 62 6 4 5 12 -3 21 -10 13 -8 18 11
31 12 9 17 16 10 16 -6 0 -12 9 -12 19 0 11 -6 22 -12 25 -9 3 -7 8 6 17 10 6
27 20 37 30 20 20 34 25 24 9 -4 -6 1 -7 12 -3 30 10 34 14 27 24 -4 6 -11 6
-20 -2 -12 -10 -17 -6 -16 11 0 3 -8 6 -18 6 -10 0 -17 -4 -14 -7 6 -11 -14
-21 -27 -13 -7 4 0 18 18 38 24 27 25 28 2 8 -34 -29 -39 -28 -29 8 5 16 6 37
4 48 -3 10 2 38 10 62 9 27 12 46 6 48 -18 6 -11 22 9 22 23 0 37 18 33 43 -2
10 2 26 10 35 8 10 8 13 1 9 -9 -5 -10 7 -6 48 5 49 4 55 -11 49 -15 -6 -21
16 -19 74 1 10 -2 10 -13 1 -11 -9 -14 -6 -14 18 0 16 -11 53 -25 81 -14 29
-25 57 -25 64 0 7 -6 36 -12 65 -9 39 -17 53 -30 53 -10 0 -20 10 -24 25 -3
14 -11 25 -16 25 -6 0 -8 7 -4 15 6 18 -5 20 -22 3 -9 -9 -11 -2 -8 26 2 26
10 44 27 56 27 21 18 40 -11 22 -26 -16 -45 -15 -60 2 -8 11 -18 12 -36 5 -31
-11 -57 8 -43 33 7 13 5 15 -14 11 -18 -5 -20 -3 -9 8 17 18 15 34 -3 19 -11
-9 -19 -10 -28 -1 -10 8 -17 7 -25 -1 -8 -8 -10 -6 -6 8 7 27 -64 104 -77 83
-7 -12 -9 -12 -9 2 0 19 -43 44 -59 35 -6 -4 -11 -3 -11 1 0 11 -65 83 -74 83
-3 0 -6 -10 -6 -22 0 -12 -3 -19 -6 -15 -3 3 -6 22 -6 42 0 30 -2 34 -14 24
-11 -9 -14 -9 -14 0 0 7 -4 10 -9 7 -5 -3 -14 1 -21 9 -17 20 -37 19 -35 -2 3
-29 16 -53 25 -48 5 3 8 -19 7 -48 -2 -57 -12 -63 -46 -29 -7 7 -20 11 -28 8
-7 -3 -16 1 -19 8 -3 9 -14 12 -27 8 -22 -5 -22 -5 -3 16 10 12 16 28 13 37
-4 8 -1 14 6 12 12 -2 12 24 0 53 -4 8 -7 18 -7 22 -2 18 -15 17 -21 -1 -3
-12 -9 -19 -13 -17 -4 2 -8 -7 -9 -20 -6 -70 0 -113 17 -124 8 -5 12 -10 7
-10 -4 0 -16 5 -27 12 -10 7 -21 10 -24 7 -5 -4 -16 -50 -32 -124 l-6 -30 -13
35 c-8 19 -14 45 -14 58 -1 13 -5 20 -11 17 -11 -7 -12 -2 -10 80 1 33 6 62
11 63 5 2 9 13 9 24 0 16 -2 17 -15 6 -8 -7 -21 -19 -29 -25 -12 -10 -13 -19
-5 -42 6 -17 9 -38 7 -48 -3 -11 -10 1 -20 31 l-15 50 -6 -33 c-4 -18 -11 -30
-16 -27 -5 4 -19 -6 -31 -21 -19 -24 -20 -28 -6 -31 17 -4 21 -14 9 -25 -3 -4
-12 -2 -20 4 -10 9 -13 8 -13 -5 0 -9 -9 -24 -20 -33 -11 -10 -20 -26 -20 -36
0 -11 -5 -15 -11 -11 -7 4 -8 20 -5 43 4 20 8 46 9 58 1 11 6 19 11 15 5 -3 7
2 3 11 -3 9 -2 19 3 22 14 9 12 31 -3 47 -19 19 -21 79 -3 72 8 -3 17 0 22 7
4 7 3 10 -4 5 -5 -3 -12 -2 -14 4 -1 5 -21 -6 -42 -25 -22 -19 -41 -33 -43
-31 -3 2 3 18 11 35 9 17 16 32 15 33 -2 2 3 13 10 26 10 18 9 22 -3 22 -14 0
-29 -28 -25 -46 4 -16 -36 -74 -47 -70 -6 3 -18 -1 -25 -7 -11 -10 -11 -9 0 5
7 10 16 16 20 14 4 -3 14 9 23 25 10 17 13 29 6 29 -6 0 -8 12 -4 32 6 31 6
31 -14 13 -11 -10 -20 -22 -20 -27 0 -7 -49 -86 -67 -108 -2 -2 -9 2 -14 10
-9 13 -10 13 -7 0 4 -23 -23 -65 -32 -50 -8 13 -31 -21 -66 -97 -23 -52 -32
-54 -31 -8 1 21 4 30 9 22 5 -8 8 -7 8 6 0 9 -4 17 -9 17 -5 0 -7 10 -4 23 2
12 -4 4 -15 -18 -17 -35 -21 -38 -27 -20 -5 11 -13 27 -20 35 -16 19 0 80 20
80 9 0 12 -6 8 -17 -5 -15 -3 -16 7 -6 11 10 11 15 0 28 -9 11 -10 18 -1 29 9
11 9 15 0 18 -8 3 -7 13 5 35 20 39 20 49 1 33 -8 -6 -19 -9 -25 -5 -5 3 -10
3 -10 -2 0 -4 -7 -30 -15 -58 -13 -43 -13 -47 0 -31 8 10 12 23 9 27 -3 5 2 6
10 3 12 -5 13 -10 3 -27 -7 -12 -18 -26 -25 -32 -7 -6 -15 -28 -18 -50 -6 -49
-14 -59 -14 -17 0 18 -5 32 -11 32 -8 0 -8 5 1 15 7 8 9 15 6 15 -4 0 -2 8 3
18 5 10 6 23 2 30 -9 15 -37 -21 -76 -98 -39 -76 -43 -46 -5 36 17 37 29 68
27 71 -9 8 -34 -9 -50 -35 -9 -15 -17 -22 -17 -16 0 17 46 74 54 66 5 -4 7 0
5 8 -3 21 11 70 21 70 5 0 6 -16 3 -37 l-6 -36 22 22 c17 17 20 26 11 36 -8 9
-8 15 0 20 5 3 10 13 10 22 0 9 7 25 17 35 11 12 12 18 3 18 -7 0 -30 -19 -52
-42 -40 -43 -40 -43 -23 -9 23 47 4 63 -23 19 -25 -39 -29 -31 -7 15 11 21 11
27 3 17 -7 -8 -25 -21 -38 -29 l-25 -14 23 25 c12 13 22 28 22 34 0 5 -5 2
-10 -6 -6 -10 -10 -11 -10 -2 0 22 -38 13 -59 -14z m-551 -607 l35 -7 -24 20
c-13 11 -19 20 -14 20 6 0 18 -9 28 -20 10 -11 15 -20 11 -20 -3 0 1 -11 10
-25 8 -13 13 -28 10 -34 -3 -5 1 -11 9 -15 8 -3 15 -10 15 -16 0 -6 -7 -5 -20
2 -11 7 -20 20 -20 29 0 20 -47 65 -57 55 -5 -4 1 -14 11 -22 14 -10 15 -14 6
-14 -9 0 -7 -5 7 -15 12 -8 20 -23 19 -32 -3 -22 -42 -29 -62 -13 -9 9 -14 9
-14 1 0 -6 11 -18 25 -27 14 -9 23 -19 21 -22 -3 -3 -11 0 -18 5 -7 6 -26 13
-43 17 -22 5 -26 4 -15 -4 12 -8 11 -10 -8 -10 -13 0 -32 5 -43 10 -11 6 -19
7 -19 1 0 -5 8 -12 18 -17 13 -6 7 -9 -23 -14 l-40 -6 28 -12 c37 -16 34 -24
-7 -17 -20 4 -36 2 -40 -4 -4 -6 -2 -11 5 -11 8 0 8 -4 -1 -15 -8 -10 -17 -12
-24 -6 -6 6 -21 8 -31 7 -11 -2 -26 1 -32 7 -15 11 -18 31 -4 23 5 -3 24 1 42
9 l34 14 -28 1 c-16 0 -26 4 -22 10 3 6 19 10 36 10 16 0 29 5 29 10 0 6 -9
10 -19 10 -24 0 -32 11 -22 28 5 9 13 7 31 -8 40 -34 37 -11 -3 25 -36 33 -34
44 8 35 6 -1 15 -3 20 -4 6 -1 16 -5 23 -10 7 -4 16 -5 19 -2 4 3 1 6 -5 6 -7
0 -12 5 -12 11 0 8 12 10 35 6 19 -3 35 -2 35 2 0 9 31 8 47 -2 9 -5 10 3 6
30 -3 21 -9 43 -12 48 -3 6 1 4 9 -5 9 -9 31 -20 50 -23z m1049 -2734 c11 3
21 1 21 -5 0 -5 4 -7 9 -4 5 3 12 -2 16 -12 6 -16 7 -16 19 0 11 14 13 13 25
-12 7 -17 18 -27 26 -24 7 3 16 0 21 -7 4 -8 3 -10 -5 -5 -6 4 -13 1 -16 -6
-7 -18 -163 -17 -175 1 -4 7 -10 12 -14 12 -3 -1 -17 1 -30 5 -13 3 -39 -1
-59 -9 -26 -12 -38 -12 -47 -4 -10 9 -14 9 -17 -1 -3 -6 -9 -9 -14 -6 -6 3
-16 1 -22 -5 -18 -14 -190 -28 -274 -22 -9 1 -11 11 -6 34 7 37 23 60 23 33 0
-18 1 -18 28 0 15 9 34 25 43 35 10 12 20 15 30 8 19 -12 57 -11 61 1 2 7 59
12 146 14 79 2 146 7 150 10 3 4 14 -3 23 -15 11 -15 23 -20 38 -16z m67 -136
c3 -9 16 -12 35 -9 29 4 30 3 27 -24 -2 -24 -8 -30 -33 -32 -16 -2 -36 -9 -44
-15 -15 -13 -60 -10 -77 4 -8 6 -13 2 -17 -13 -12 -43 10 -46 118 -15 57 16
99 7 116 -24 6 -13 21 -19 43 -19 36 0 65 -25 61 -52 -2 -10 3 -18 11 -18 14
0 15 -20 2 -30 -4 -3 -1 -18 7 -33 12 -23 12 -34 -1 -80 -8 -28 -15 -60 -15
-69 0 -10 -4 -18 -8 -18 -4 0 -8 -6 -9 -12 -3 -42 -7 -58 -14 -58 -4 0 -8 -7
-8 -15 0 -8 -4 -15 -10 -15 -5 0 -7 -6 -4 -14 3 -8 -3 -16 -15 -19 -15 -4 -19
-10 -14 -23 5 -13 3 -16 -10 -11 -8 3 -18 1 -20 -6 -3 -9 -8 -9 -18 1 -18 17
-29 15 -29 -4 0 -10 -6 -14 -14 -11 -8 3 -18 -5 -25 -19 -11 -26 -31 -24 -31
1 0 9 6 12 18 8 14 -5 15 -3 5 8 -10 9 -16 10 -24 2 -15 -15 -39 -5 -62 24
-10 13 -24 23 -31 23 -12 0 -38 59 -41 94 -3 37 18 86 36 86 11 0 16 5 13 13
-2 7 4 21 15 31 11 10 18 23 14 29 -3 5 4 17 16 26 22 17 20 17 -56 18 -43 0
-108 2 -144 3 -36 2 -71 0 -77 -4 -7 -4 -26 -8 -43 -8 -21 -1 -28 -5 -25 -15
3 -7 -1 -13 -9 -13 -18 0 -20 -16 -2 -23 9 -4 8 -8 -3 -17 -12 -9 -8 -11 18
-6 21 4 31 2 27 -4 -4 -6 1 -13 9 -16 9 -3 13 -11 9 -17 -4 -6 0 -8 10 -4 13
5 14 2 5 -24 -5 -16 -7 -37 -2 -47 12 -28 11 -62 -3 -74 -10 -8 -11 -14 -1
-25 10 -13 13 -12 19 4 7 16 8 15 8 -5 1 -13 -4 -22 -11 -20 -7 2 -29 -7 -48
-19 -43 -26 -96 -42 -86 -24 5 8 1 8 -18 -1 -14 -6 -26 -15 -26 -20 0 -5 -5
-6 -10 -3 -8 5 -7 12 2 23 11 14 10 15 -6 9 -12 -5 -26 -1 -37 9 -18 16 -19
16 -19 1 0 -10 6 -17 14 -17 18 0 -3 -67 -24 -75 -12 -5 -13 -4 -2 6 6 7 12
24 12 37 0 22 -2 23 -17 11 -16 -13 -17 -12 -4 4 12 15 12 19 -5 32 -14 10
-20 10 -23 2 -5 -17 -53 -67 -64 -67 -6 0 2 11 17 25 28 26 34 45 14 45 -10 0
-9 3 1 9 8 5 9 11 3 15 -6 4 -14 1 -19 -6 -4 -7 -19 -22 -32 -33 l-25 -20 22
29 c29 38 28 49 -4 43 -18 -3 -24 -1 -20 9 8 22 -4 44 -25 44 -10 0 -19 5 -19
11 0 5 4 8 9 4 5 -3 13 0 17 6 4 7 3 9 -4 5 -12 -7 -44 33 -36 46 3 4 -1 8 -8
8 -14 0 -18 86 -5 107 4 7 3 14 -3 18 -17 11 -11 61 12 90 19 24 23 26 33 12
14 -19 28 -11 46 28 9 19 26 34 46 40 18 6 42 20 55 32 13 12 40 25 61 28 34
7 38 10 33 31 -11 41 9 64 54 64 25 0 40 -5 40 -12 0 -9 3 -10 8 -2 6 9 127
20 360 32 19 1 35 -3 38 -11z"/>
<path d="M7248 11535 c-2 -2 -37 -5 -78 -8 -84 -5 -102 -8 -111 -20 -3 -4 -15
-9 -27 -10 -17 -1 -19 -4 -9 -16 10 -12 9 -14 -6 -8 -28 10 -61 -25 -51 -55
13 -38 12 -56 -3 -51 -7 3 -13 0 -13 -6 0 -6 4 -11 9 -11 5 0 7 -8 4 -19 -3
-10 0 -22 6 -25 15 -10 14 -67 -3 -107 -30 -72 25 -205 111 -272 15 -12 30
-25 31 -29 5 -12 30 -9 38 4 5 8 2 9 -9 5 -10 -3 -17 -2 -17 3 0 15 31 12 50
-5 9 -8 29 -16 43 -17 17 -2 26 -7 23 -15 -3 -7 1 -10 9 -6 8 3 13 8 10 12 -2
4 24 2 58 -6 34 -7 75 -13 90 -13 26 0 27 1 13 16 -9 8 -16 17 -16 19 0 2 32
3 71 2 65 -2 69 -1 43 10 -16 7 -42 13 -59 14 -20 1 -11 4 25 10 30 4 64 6 75
4 11 -3 6 2 -12 10 -17 8 -34 19 -38 25 -3 5 -11 10 -16 10 -6 0 -7 -5 -3 -12
5 -8 0 -9 -14 -6 -12 4 -22 3 -22 -2 0 -15 -81 13 -91 31 -8 15 -14 17 -28 9
-18 -9 -31 -5 -31 12 0 4 19 8 42 8 23 0 39 -3 35 -6 -11 -12 18 -29 50 -30
29 -1 31 1 22 18 -10 18 -8 19 13 13 16 -4 19 -3 9 3 -16 11 -5 19 29 22 39 3
43 1 30 -15 -10 -12 -9 -15 4 -15 10 0 15 4 11 9 -11 18 15 22 39 6 25 -17 52
-12 41 6 -4 5 7 9 22 9 22 0 29 5 29 19 0 18 -3 18 -33 6 -17 -7 -33 -10 -35
-7 -5 11 -60 47 -95 63 -18 7 -33 17 -33 20 0 4 -10 9 -22 12 -13 3 -43 11
-68 17 -25 7 -65 12 -90 11 -41 -2 -43 -1 -26 12 11 8 28 12 38 9 12 -3 18 1
18 12 0 19 16 21 23 4 4 -10 7 -10 14 -1 7 9 18 10 43 3 44 -13 51 -6 9 9 -47
16 -28 24 22 10 24 -7 52 -13 61 -14 24 0 129 -85 121 -98 -3 -5 -1 -7 5 -3 6
3 14 2 17 -4 5 -8 11 -8 20 0 11 9 10 18 -7 48 -12 20 -28 45 -37 55 -14 16
-13 17 4 11 12 -5 16 -4 12 4 -4 6 1 13 10 15 10 3 4 5 -13 6 -38 1 -54 28
-21 33 19 3 71 -9 87 -20 2 -2 -2 -8 -10 -13 -12 -8 -11 -9 5 -7 14 3 19 10
17 23 -3 20 -3 20 11 0 9 -11 18 -18 20 -15 7 7 -26 80 -36 80 -4 0 -28 19
-53 42 -25 24 -57 47 -72 53 -19 8 -23 13 -13 19 11 7 11 10 0 17 -21 13 -29
11 -23 -6 4 -8 1 -15 -6 -15 -6 0 -9 4 -6 9 8 13 -13 26 -69 44 -63 19 -208
41 -217 32z"/>
<path d="M6295 11494 c-71 -15 -135 -36 -135 -46 0 -3 -13 -9 -29 -13 -16 -3
-41 -18 -56 -33 -19 -19 -28 -23 -34 -14 -5 9 -16 3 -37 -20 -16 -18 -29 -36
-29 -40 0 -4 -6 -13 -14 -20 -12 -11 -12 -10 -5 2 4 8 -6 4 -23 -10 -18 -14
-32 -34 -32 -45 0 -11 3 -14 6 -7 2 7 13 17 23 22 18 9 18 8 8 -20 -12 -37 -4
-51 12 -21 11 22 44 28 55 11 3 -5 2 -10 -4 -10 -6 0 -8 -7 -5 -15 4 -11 2
-13 -9 -10 -8 4 -17 -1 -21 -11 -4 -11 -2 -15 8 -11 8 3 20 -2 28 -11 9 -11
10 -14 1 -8 -7 4 -13 2 -13 -3 0 -6 5 -11 10 -11 6 0 1 -9 -10 -20 -23 -23
-27 -60 -6 -60 8 0 46 29 84 64 78 71 90 79 145 94 32 9 36 8 27 -2 -8 -11 -1
-13 37 -8 27 2 45 1 41 -3 -4 -4 9 -17 30 -27 55 -29 56 -33 8 -30 -50 4 -163
-22 -186 -43 -9 -8 -21 -15 -27 -15 -6 0 -32 -17 -59 -37 -27 -21 -71 -48 -98
-61 -27 -12 -46 -25 -43 -28 3 -3 20 1 38 10 39 19 50 20 43 3 -7 -19 57 -9
72 11 7 10 22 13 47 10 20 -2 37 0 37 4 0 4 -3 8 -7 8 -5 0 -15 4 -22 9 -12 8
-11 13 10 30 33 28 41 26 64 -17 20 -37 21 -37 80 -35 33 0 83 3 112 5 55 3
57 -3 7 -20 -23 -7 -35 -7 -43 1 -8 8 -11 8 -11 -1 0 -7 -8 -12 -18 -12 -10 0
-24 -6 -31 -12 -11 -10 -13 -10 -7 0 9 15 -10 16 -20 1 -3 -6 -1 -15 7 -19 9
-6 5 -11 -14 -15 -15 -4 -24 -11 -21 -16 3 -5 -1 -9 -8 -10 -41 -1 -97 -9
-123 -18 -28 -9 -28 -9 17 -10 49 -1 70 -16 47 -33 -10 -7 -9 -8 6 -3 11 3 34
9 50 12 24 4 27 2 15 -7 -13 -10 -12 -11 5 -5 33 10 119 29 128 27 4 -1 7 3 7
9 0 6 9 9 20 6 11 -3 18 -1 14 4 -3 5 -1 9 4 9 5 0 32 18 61 41 48 38 67 78
39 80 -7 0 -3 4 10 10 18 7 22 14 17 29 -5 16 -2 20 19 20 14 0 26 4 26 8 0 5
11 15 25 22 20 11 25 21 25 54 0 23 -7 59 -15 81 -8 22 -14 64 -15 94 0 42 -6
62 -25 87 -14 18 -25 37 -25 42 0 5 -7 15 -15 22 -20 16 -205 19 -280 4z"/>
<path d="M8007 8913 c-4 -3 -7 -49 -7 -102 0 -165 -29 -293 -81 -365 -16 -22
-29 -45 -29 -51 0 -6 -18 -29 -40 -50 -22 -21 -40 -44 -40 -49 0 -16 -52 -66
-69 -67 -12 0 -10 -3 4 -9 18 -7 18 -9 -10 -21 -16 -8 -30 -20 -30 -28 0 -8
-15 -21 -32 -30 -37 -18 -44 -35 -10 -26 17 5 19 4 7 -4 -8 -6 -22 -8 -30 -6
-19 6 -43 -9 -46 -29 -1 -9 2 -14 7 -10 5 3 7 9 4 14 -3 4 1 10 9 13 9 4 13 0
12 -9 -3 -20 -25 -34 -43 -27 -7 3 -13 -2 -13 -11 0 -9 -8 -16 -18 -16 -18 0
-42 -18 -42 -32 0 -4 8 -5 18 -1 9 3 14 3 10 -1 -3 -4 -12 -8 -20 -10 -20 -3
-55 -25 -40 -26 7 0 22 -9 33 -19 13 -12 16 -19 7 -18 -33 1 -48 -4 -48 -18 0
-8 -10 -20 -22 -26 -14 -8 -18 -14 -10 -17 6 -2 10 -8 6 -13 -3 -5 5 -9 18
-10 21 -1 20 -2 -7 -14 -34 -16 -19 -20 19 -5 30 11 36 -3 9 -20 -15 -9 -13
-10 11 -5 26 5 28 4 17 -9 -11 -13 -11 -16 3 -16 10 0 15 -4 12 -9 -3 -5 1
-14 9 -21 9 -7 13 -21 10 -31 -7 -22 5 -25 24 -6 10 10 11 4 6 -31 -6 -41 -5
-43 14 -33 28 16 35 14 17 -5 -9 -8 -13 -20 -10 -26 8 -12 57 43 84 94 18 34
54 68 72 68 5 0 8 -8 8 -18 0 -22 36 -57 68 -67 12 -3 23 -11 24 -16 3 -23 2
-29 -5 -29 -11 1 -54 -48 -79 -89 -12 -20 -48 -63 -79 -96 -32 -33 -105 -118
-164 -190 -58 -71 -114 -139 -123 -150 -125 -149 -193 -297 -227 -491 -17 -97
-19 -121 -40 -364 -8 -91 -17 -187 -20 -215 -3 -27 -5 -84 -5 -126 0 -87 -18
-159 -20 -79 0 25 -5 65 -11 90 -36 159 -54 319 -79 695 -12 164 -22 207 -68
295 -37 70 -153 262 -208 347 -19 28 -34 54 -34 58 0 3 -20 40 -45 81 -25 40
-45 78 -45 83 0 5 -11 18 -23 28 -47 37 -64 103 -27 103 11 0 20 5 20 10 0 6
7 10 17 10 21 0 103 48 103 60 0 5 -8 15 -18 22 -35 25 -35 38 0 33 32 -5 28
-1 -22 17 -24 9 -24 10 -6 24 11 8 14 14 8 14 -7 0 -12 6 -12 14 0 18 -21 26
-52 20 -21 -4 -21 -4 -3 5 16 8 16 10 4 10 -9 1 -23 8 -30 17 -11 13 -4 12 28
-4 23 -12 50 -19 60 -16 13 4 15 3 5 -4 -11 -7 -10 -10 3 -16 25 -9 43 -7 26
3 -15 10 -7 13 58 26 25 5 32 4 26 -5 -5 -9 -1 -10 15 -5 12 4 20 3 17 -1 -3
-5 15 -10 39 -10 24 -1 44 2 44 7 0 12 43 11 56 0 5 -6 23 -6 44 -1 l35 9 -33
-3 c-18 -1 -35 1 -38 6 -3 4 2 8 10 8 9 0 13 6 10 14 -4 11 2 14 30 11 43 -4
56 11 27 31 -12 9 -19 20 -15 26 4 6 -10 9 -37 8 -64 -3 -68 -1 -29 16 27 12
32 17 20 24 -20 13 -100 13 -100 0 0 -5 -11 -10 -25 -10 -14 0 -25 -5 -25 -11
0 -7 16 -8 46 -3 37 5 46 4 42 -7 -3 -9 -23 -15 -53 -17 -30 -2 -44 -6 -36
-11 8 -5 1 -8 -18 -7 -32 1 -41 11 -18 19 6 3 -4 5 -23 5 -19 0 -48 3 -65 6
-28 5 -28 5 3 -4 17 -6 32 -13 32 -16 0 -8 -63 6 -74 17 -16 14 -30 10 -17 -5
6 -7 38 -19 71 -25 33 -7 60 -16 60 -22 0 -10 -12 -8 -87 9 -23 5 -46 7 -50 3
-4 -3 -5 -2 -1 3 4 4 0 15 -9 24 -12 12 -19 13 -34 4 -27 -17 -34 -15 -18 5 8
9 9 14 3 10 -6 -3 -17 3 -24 14 -8 10 -22 19 -32 19 -10 0 -18 4 -18 10 0 5
-7 7 -16 3 -11 -4 -12 -8 -4 -13 7 -5 2 -9 -14 -12 -14 -3 -26 -1 -26 4 0 5
-6 8 -12 7 -7 -1 -22 0 -33 1 -16 1 -14 4 8 10 16 5 36 6 44 3 11 -4 14 -2 9
5 -4 7 -16 12 -27 12 -10 0 -19 3 -19 8 0 4 -15 8 -33 9 -36 3 -107 29 -107
39 0 4 10 4 21 1 41 -11 4 10 -40 22 -33 9 -41 15 -30 22 11 7 9 9 -7 9 -11 0
-29 7 -40 15 -19 15 -19 15 1 9 17 -5 16 -2 -5 15 -14 11 -32 21 -40 22 -11 0
-11 2 -2 6 9 3 4 12 -15 29 -15 13 -32 24 -37 24 -5 0 -7 3 -3 6 3 3 -9 20
-27 37 -17 18 -58 65 -90 106 -42 52 -61 69 -67 60 -4 -7 -11 -11 -14 -7 -3 3
0 12 8 20 12 12 12 17 1 33 -20 27 -52 133 -59 197 -3 31 -12 58 -18 61 -17 7
-15 -112 2 -123 9 -5 10 -10 2 -14 -17 -11 -13 -36 6 -36 13 0 10 -7 -13 -27
-17 -16 -21 -21 -11 -13 19 14 20 13 15 -11 -4 -21 -1 -25 12 -22 8 2 25 -6
35 -18 11 -12 14 -19 7 -15 -7 4 -20 0 -29 -10 -16 -16 -16 -16 7 -9 23 7 24
7 10 -10 -9 -11 -10 -16 -2 -11 6 4 12 2 12 -3 0 -6 -4 -11 -10 -11 -5 0 -10
-5 -10 -11 0 -6 9 -8 23 -4 15 4 18 4 8 -3 -7 -5 -10 -15 -7 -21 11 -18 26 -3
27 27 l1 27 10 -29 c8 -23 8 -31 -1 -34 -9 -3 -9 -7 0 -18 9 -11 8 -14 -5 -14
-9 0 -16 -3 -17 -7 0 -5 -2 -18 -5 -30 -2 -13 -1 -23 4 -23 11 0 38 20 28 20
-5 0 -1 9 9 20 10 11 23 20 28 20 6 0 3 -6 -8 -14 -12 -8 -16 -20 -13 -34 4
-14 2 -19 -7 -16 -7 3 -15 -2 -18 -10 -4 -10 -1 -13 9 -9 12 4 14 -1 10 -22
-5 -29 -16 -47 -16 -26 0 7 -6 19 -14 26 -12 12 -16 12 -28 -2 -11 -15 -11
-16 5 -10 9 3 17 2 17 -3 0 -6 -6 -10 -12 -10 -7 -1 2 -7 20 -15 18 -8 31 -19
27 -25 -10 -16 7 -12 28 8 19 16 19 16 6 -5 -10 -17 -10 -27 -1 -47 15 -33 6
-62 -14 -45 -11 9 -14 6 -14 -20 0 -17 -4 -31 -8 -31 -5 0 -7 -14 -4 -30 4
-26 2 -29 -14 -24 -15 5 -16 4 -4 -4 20 -15 28 -7 36 36 8 40 18 54 49 66 16
6 17 9 5 16 -13 8 -12 11 5 24 11 8 22 12 25 10 2 -3 -2 -9 -9 -13 -9 -6 -10
-14 -5 -22 11 -17 12 -79 2 -72 -5 2 -8 -3 -8 -11 0 -9 -7 -16 -16 -16 -13 0
-14 3 -4 14 8 10 8 21 2 32 -6 11 -11 13 -16 5 -4 -6 -2 -11 5 -11 7 0 6 -8
-5 -25 -9 -14 -12 -25 -6 -25 13 0 13 -41 -1 -60 -8 -12 -9 -9 -5 13 4 15 2
27 -3 27 -5 0 -11 -11 -13 -25 -3 -14 -1 -25 3 -25 5 0 9 -7 9 -17 0 -9 -3
-13 -7 -10 -7 8 -33 -11 -33 -24 0 -16 18 -9 23 9 4 16 5 16 6 0 0 -10 6 -18
12 -18 5 0 8 4 4 9 -3 5 -1 12 5 16 6 4 8 11 5 16 -4 5 -2 9 3 9 16 0 22 -13
11 -27 -9 -9 -8 -17 1 -28 7 -8 9 -23 4 -37 -6 -20 -5 -21 9 -10 9 7 14 22 12
32 -2 10 6 27 17 37 14 12 18 13 13 3 -15 -25 -16 -52 -3 -48 7 3 14 14 16 26
2 12 7 20 12 17 10 -6 2 -36 -12 -46 -5 -3 -5 -16 0 -29 6 -15 11 -19 16 -12
4 7 15 12 24 11 13 0 12 -3 -5 -11 -13 -6 -23 -15 -23 -20 0 -5 -10 0 -22 11
-20 20 -22 20 -39 3 -9 -9 -16 -21 -15 -27 0 -5 -12 -10 -29 -10 -20 -1 -31
-6 -33 -18 -2 -9 -13 -17 -24 -17 -15 0 -19 5 -14 18 3 9 -12 -2 -35 -26 -22
-24 -38 -46 -35 -49 9 -9 36 18 30 31 -3 6 2 2 11 -9 15 -19 15 -20 -1 -24
-13 -2 -14 -5 -4 -11 10 -6 10 -12 0 -26 -9 -16 -11 -16 -6 -2 8 25 -13 33
-32 13 -10 -10 -11 -14 -4 -10 8 4 13 2 11 -6 -3 -27 1 -40 11 -34 5 3 7 0 5
-8 -3 -7 8 -33 24 -57 23 -35 27 -48 19 -63 -18 -34 -41 -55 -54 -50 -8 3 -14
-1 -14 -8 0 -8 -9 -4 -23 9 -31 29 -41 28 -21 -3 15 -23 15 -25 0 -25 -10 0
-14 -5 -10 -11 4 -8 9 -8 17 0 6 6 18 11 26 11 14 -1 13 -3 -1 -14 -10 -7 -18
-17 -18 -21 0 -4 7 -2 15 5 16 13 35 6 34 -13 0 -9 -2 -9 -5 0 -8 19 -74 -16
-67 -36 4 -13 3 -14 -5 -1 -6 8 -9 17 -6 21 10 16 -15 18 -27 2 -8 -9 -9 -14
-3 -10 7 4 14 -3 17 -18 2 -14 0 -28 -4 -31 -5 -3 -9 0 -9 6 0 7 -12 4 -30 -6
-21 -13 -26 -20 -17 -26 9 -6 9 -8 0 -8 -7 0 -13 -8 -13 -17 -1 -17 -1 -17
-11 0 -6 9 -15 15 -21 11 -6 -4 -5 -10 3 -15 8 -5 9 -9 3 -9 -5 0 -19 7 -30
16 -10 8 -13 13 -6 9 6 -3 12 -2 12 3 0 6 -7 12 -15 16 -22 8 -7 39 16 33 11
-3 22 -1 25 4 3 5 -2 9 -10 9 -9 0 -16 4 -16 8 0 5 10 8 23 7 12 -1 32 3 45 9
22 9 22 11 5 17 -29 11 -38 10 -38 -3 0 -7 -8 -12 -18 -10 -9 2 -20 -4 -23
-13 -4 -9 -13 -14 -21 -11 -11 4 -13 0 -9 -17 3 -12 3 -16 0 -9 -3 6 -18 12
-32 12 -24 0 -25 2 -11 15 9 9 25 17 37 18 12 1 22 4 22 8 0 4 9 9 20 12 11 3
20 10 20 16 0 14 -17 14 -25 1 -3 -5 -14 -14 -24 -20 -15 -8 -20 -5 -24 11 -5
17 -2 20 14 16 16 -4 18 -3 9 8 -6 7 -8 19 -4 28 6 17 -28 41 -41 29 -4 -4 -4
3 -1 15 5 15 0 28 -16 43 -15 14 -17 19 -7 15 10 -4 20 -2 24 4 3 6 -2 11 -12
12 -16 0 -16 1 2 9 38 16 48 5 20 -23 -13 -13 -13 -16 1 -21 20 -8 51 8 35 18
-6 4 -11 2 -11 -3 0 -6 -4 -11 -10 -11 -11 0 7 47 28 73 13 15 13 17 0 17 -9
0 -18 7 -22 15 -7 18 5 20 22 3 9 -9 12 -8 12 5 0 9 -7 17 -15 17 -8 0 -15 5
-15 10 0 6 4 10 9 10 12 0 41 58 41 82 0 13 4 17 13 12 8 -5 8 -2 -2 9 -8 10
-9 17 -3 17 6 0 16 -8 21 -17 9 -14 10 -10 7 19 -5 41 -34 108 -47 108 -5 0
-9 7 -9 16 0 8 -4 13 -9 10 -5 -3 -14 1 -21 9 -7 8 -10 15 -7 15 3 0 -7 15
-24 32 -16 18 -29 41 -29 51 0 10 -4 16 -9 13 -5 -3 -14 9 -21 27 -6 17 -18
43 -25 57 -15 29 -22 172 -10 208 6 17 3 22 -9 22 -9 0 -16 4 -16 10 0 5 -6 7
-13 4 -17 -6 -39 -67 -31 -87 3 -8 1 -24 -5 -35 -7 -14 -6 -24 5 -40 9 -13 11
-23 4 -27 -7 -4 -7 -12 0 -24 5 -10 6 -21 2 -25 -3 -4 2 -4 13 0 18 7 18 6 7
-9 -8 -9 -11 -25 -7 -37 4 -11 2 -20 -4 -20 -19 0 -12 -28 10 -43 13 -9 16
-17 10 -22 -6 -3 -11 -1 -11 6 0 17 -13 2 -16 -17 -2 -10 3 -14 12 -10 8 3 14
1 14 -4 0 -6 -7 -10 -16 -10 -8 0 -12 -4 -9 -10 3 -5 0 -10 -7 -10 -10 -1 -9
-4 2 -13 21 -17 20 -66 -2 -73 -14 -4 -16 -9 -8 -25 8 -13 7 -19 0 -19 -7 0
-9 -8 -5 -19 3 -11 1 -22 -5 -26 -5 -3 -10 -21 -10 -39 0 -18 -3 -36 -7 -40
-11 -11 -14 -48 -3 -41 13 8 1 -26 -18 -47 -8 -10 -12 -26 -9 -38 3 -11 1 -20
-5 -20 -5 0 -8 -6 -5 -12 2 -7 -2 -20 -10 -30 -11 -12 -11 -18 -2 -24 8 -5 10
-3 4 6 -5 9 -4 11 4 6 16 -10 4 -26 -20 -26 -12 0 -17 -4 -14 -11 4 -6 14 -8
22 -4 13 4 14 3 3 -10 -7 -8 -10 -15 -6 -15 4 0 -1 -11 -9 -24 -13 -19 -13
-25 -3 -29 10 -3 10 -7 1 -17 -8 -8 -9 -20 -3 -36 6 -16 6 -24 -1 -24 -6 0 -9
-6 -6 -12 2 -7 10 -12 17 -10 11 3 11 0 1 -12 -7 -9 -18 -13 -25 -9 -6 4 -4
-2 4 -12 9 -11 10 -16 3 -11 -7 4 -13 2 -13 -3 0 -6 7 -11 16 -11 8 0 12 -5 9
-10 -4 -6 -11 -8 -16 -5 -5 4 -10 -1 -10 -9 -1 -9 -2 -24 -3 -33 -1 -10 -7
-29 -14 -43 -11 -21 -11 -23 1 -8 8 10 18 13 26 9 9 -6 10 -10 2 -15 -6 -4 -9
-11 -7 -15 3 -4 -10 -25 -29 -45 -19 -21 -33 -43 -32 -49 1 -6 -8 -13 -20 -15
-17 -2 -23 2 -23 15 -1 17 -2 17 -15 -1 -10 -13 -15 -15 -15 -6 0 8 10 25 23
38 l22 24 -24 -7 c-15 -5 -21 -4 -17 3 3 6 2 13 -4 17 -6 4 -8 11 -4 16 3 5
10 7 15 4 5 -3 6 1 3 9 -3 8 -13 13 -23 11 -10 -2 -23 0 -30 4 -8 5 -2 10 18
14 17 4 31 11 31 17 0 6 -4 9 -8 6 -4 -2 -14 -1 -22 5 -8 5 -10 9 -5 9 15 0
17 52 3 62 -9 5 -8 8 5 8 9 0 17 5 17 10 0 6 -3 9 -7 9 -19 -3 -21 3 -13 30 7
25 6 29 -8 24 -14 -5 -15 -3 -4 8 17 19 15 32 -5 25 -17 -6 -17 -5 0 8 21 17
23 40 1 32 -23 -9 -12 17 13 29 20 10 20 11 -8 27 -16 10 -29 13 -29 8 0 -6
-8 -10 -17 -10 -11 0 -14 -3 -7 -8 21 -13 21 -37 0 -53 -18 -15 -22 -15 -32
-1 -10 14 -16 14 -44 2 -27 -11 -30 -15 -15 -20 18 -6 18 -7 0 -14 -12 -4 -26
1 -43 16 -19 17 -24 19 -19 6 4 -12 -3 -20 -26 -29 -18 -7 -36 -15 -42 -17 -5
-2 -1 2 9 10 17 14 17 15 2 21 -9 4 -14 3 -11 -2 3 -5 1 -12 -5 -16 -6 -4 -8
-11 -4 -16 3 -6 -3 -13 -15 -16 -11 -3 -19 -8 -17 -12 6 -10 -47 -10 -65 0
-11 6 -32 3 -59 -6 -52 -18 -50 -18 -50 0 0 8 4 15 10 15 5 0 9 3 9 8 -3 20 4
21 34 6 17 -9 29 -13 25 -9 -4 5 -3 14 3 21 9 11 7 15 -6 20 -10 4 -20 1 -25
-6 -4 -7 -13 -9 -20 -5 -6 4 -20 -1 -31 -11 -17 -15 -22 -16 -29 -4 -5 8 -3
18 5 27 8 7 12 20 9 28 -4 10 -13 0 -28 -28 -24 -44 -18 -62 17 -51 30 9 19
-21 -15 -40 -18 -9 -25 -11 -15 -3 21 17 22 27 2 27 -8 0 -15 4 -15 8 0 5 -11
14 -25 20 -25 12 -55 7 -55 -9 0 -5 -8 -9 -17 -9 -15 0 -16 -2 -3 -10 12 -8
11 -10 -7 -10 -14 0 -23 6 -23 15 0 13 -4 14 -22 4 -13 -7 -29 -18 -36 -26
-22 -22 -35 -15 -28 15 5 23 4 25 -6 12 -7 -8 -19 -15 -25 -16 -29 -2 -34 -4
-28 -13 3 -5 1 -12 -5 -16 -14 -9 -13 18 2 33 9 9 8 12 -5 12 -9 0 -17 -4 -17
-10 0 -5 -8 -10 -18 -10 -26 0 -33 -10 -22 -30 10 -19 4 -20 -32 -7 -40 15
-47 15 -60 -1 -11 -15 -11 -16 2 -7 9 6 7 2 -3 -8 -11 -9 -28 -15 -37 -12 -18
6 -70 -13 -70 -25 0 -11 37 -5 52 8 11 9 19 8 34 -3 18 -14 18 -14 -6 -15 -14
0 -35 -1 -47 -1 -13 0 -23 -6 -23 -13 0 -17 -33 -46 -52 -46 -9 0 -18 -9 -21
-20 -4 -15 -12 -18 -37 -15 -28 3 -31 1 -27 -16 4 -14 0 -19 -15 -19 -14 0
-18 5 -14 15 8 21 2 19 -35 -16 -19 -17 -43 -35 -54 -40 -19 -7 -19 -8 2 -8
12 -1 25 -7 29 -13 4 -7 4 -10 0 -6 -4 3 -24 -5 -43 -18 -39 -26 -47 -26 -37
0 4 10 13 15 24 11 10 -3 22 0 26 6 4 7 3 9 -3 6 -15 -9 -36 19 -27 35 4 7 -2
5 -14 -5 -11 -11 -25 -16 -30 -13 -6 3 -12 0 -15 -8 -4 -10 0 -12 14 -9 26 7
24 -11 -4 -31 -15 -11 -18 -19 -10 -22 10 -4 9 -12 -2 -35 -15 -28 -32 -41
-22 -16 3 8 -6 12 -28 12 -26 0 -31 -3 -23 -12 8 -10 6 -13 -6 -13 -9 0 -16
-4 -16 -9 0 -5 -15 -15 -34 -21 -23 -7 -36 -19 -40 -35 -5 -20 -12 -24 -34
-21 -15 2 -21 1 -15 -1 19 -7 16 -21 -9 -46 -24 -23 -52 -67 -43 -67 11 0 45
35 45 47 0 7 9 17 20 23 11 6 17 16 14 22 -4 7 -3 8 4 4 17 -10 15 -36 -2 -36
-8 0 -17 -7 -20 -16 -8 -22 -8 -22 12 -27 16 -4 16 -5 -1 -6 -10 0 -28 -10
-40 -21 -12 -12 -23 -16 -25 -10 -5 15 -29 12 -36 -5 -3 -8 -1 -15 5 -15 6 0
7 -4 4 -10 -3 -5 2 -10 12 -10 17 -1 17 -1 1 -11 -10 -5 -18 -17 -18 -25 0 -8
-10 -19 -22 -24 -22 -8 -22 -9 5 -9 33 -1 32 -20 -2 -33 -19 -6 -22 -5 -17 7
4 11 -1 15 -19 15 -16 0 -25 -6 -25 -16 0 -14 -3 -14 -15 -4 -9 7 -19 10 -22
6 -4 -4 -2 -10 4 -14 16 -10 12 -52 -5 -52 -7 0 -10 5 -6 12 4 6 3 8 -4 4 -5
-3 -12 -1 -14 5 -2 5 -11 7 -21 4 -9 -4 -14 -11 -11 -16 3 -5 -7 -10 -23 -10
-23 -2 -24 -2 -5 -6 15 -3 22 -11 22 -29 0 -13 -5 -24 -12 -24 -9 0 -9 -3 0
-12 7 -7 12 -21 12 -32 0 -17 -2 -18 -10 -6 -7 12 -11 9 -19 -11 -11 -30 -63
-68 -69 -51 -7 23 -20 11 -27 -25 -11 -58 -62 -124 -77 -100 -4 6 -10 8 -14 4
-4 -3 -1 -14 7 -23 13 -16 12 -17 -8 -12 -13 4 -23 2 -23 -3 0 -5 5 -9 11 -9
8 0 7 -5 -1 -15 -10 -12 -10 -19 -2 -27 7 -7 12 -8 12 -2 0 6 7 19 15 30 14
18 15 18 11 -9 -7 -41 -25 -60 -42 -46 -8 6 -14 8 -14 4 0 -4 7 -13 17 -20 14
-11 13 -13 -10 -19 -14 -3 -38 -17 -52 -30 -22 -21 -24 -27 -14 -54 7 -19 16
-29 24 -26 10 4 12 0 8 -15 -6 -25 -23 -38 -23 -19 0 7 -10 19 -21 27 -18 11
-23 11 -30 -1 -7 -10 -9 -9 -9 5 0 19 -8 21 -29 8 -10 -6 -10 -10 -1 -16 8 -5
6 -11 -7 -20 -10 -7 -22 -11 -26 -8 -5 3 -4 -5 3 -17 11 -21 13 -21 22 -7 5
10 16 17 23 17 27 0 16 -20 -20 -37 -19 -9 -35 -21 -35 -25 0 -5 5 -6 12 -2 7
5 9 2 5 -9 -4 -10 0 -17 11 -20 12 -3 8 -8 -15 -18 -18 -7 -33 -17 -33 -22 0
-15 30 -19 47 -6 12 10 15 10 9 2 -4 -8 -2 -13 6 -13 8 -1 6 -6 -6 -15 -24
-18 -40 -20 -30 -3 4 7 3 8 -4 4 -6 -4 -9 -13 -6 -21 5 -11 0 -12 -25 -5 -29
8 -31 7 -31 -20 0 -16 -3 -30 -7 -33 -5 -2 -2 -2 5 -1 20 5 14 -12 -12 -31
-19 -15 -23 -23 -15 -36 10 -19 -5 -37 -16 -19 -10 17 -25 11 -25 -9 0 -11 -5
-23 -10 -26 -6 -4 -8 -10 -5 -15 3 -5 -4 -14 -16 -21 l-22 -11 22 -13 c21 -11
22 -13 6 -28 -9 -10 -22 -17 -28 -17 -7 0 -18 -12 -24 -27 -19 -40 -15 -52 7
-23 10 14 22 21 27 17 4 -5 0 -14 -10 -21 -9 -7 -17 -21 -17 -30 0 -9 -11 -28
-25 -42 -14 -14 -25 -35 -25 -47 0 -13 -5 -28 -12 -35 -9 -9 -8 -12 4 -12 31
0 29 -19 -3 -27 -28 -8 -30 -11 -18 -23 17 -18 18 -38 3 -48 -6 -4 -14 -17
-18 -29 -5 -15 -13 -20 -24 -17 -16 5 -16 5 0 -5 13 -9 14 -15 5 -36 -7 -14
-19 -25 -27 -25 -12 0 -12 -2 -2 -9 8 -4 12 -19 11 -32 -2 -13 0 -30 5 -37 10
-16 1 -27 -22 -27 -9 0 -16 -6 -14 -12 1 -7 -7 -13 -17 -13 -23 0 -35 -28 -20
-46 9 -12 9 -13 -3 -9 -10 4 -17 -2 -21 -17 -4 -13 -2 -24 3 -26 6 -2 10 -8
10 -14 0 -6 -6 -8 -13 -5 -13 5 -51 -45 -52 -68 -1 -18 -30 -55 -42 -55 -22 0
-15 -51 8 -57 13 -4 18 -11 14 -21 -3 -8 -1 -20 3 -26 5 -6 12 -26 15 -44 4
-18 17 -43 29 -57 37 -39 48 -54 48 -64 0 -13 -112 -3 -122 11 -5 9 -8 5 -8
-11 0 -16 4 -22 15 -17 18 7 21 -24 3 -42 -14 -14 13 -28 38 -18 8 3 12 2 9
-4 -3 -6 -2 -10 4 -10 10 0 9 -25 -2 -36 -11 -11 134 -111 233 -160 191 -95
326 -145 515 -192 300 -76 482 -89 670 -48 6 1 34 10 63 20 29 10 56 15 59 12
4 -3 1 -6 -7 -6 -10 0 -10 -3 0 -15 10 -12 9 -16 -4 -21 -10 -4 -15 -13 -12
-20 3 -8 -1 -14 -10 -14 -10 0 -14 -6 -10 -15 3 -10 -6 -28 -25 -46 -35 -35
-31 -54 4 -21 13 12 26 19 30 16 7 -8 25 6 101 81 47 47 69 78 95 140 19 44
45 96 56 115 12 19 28 52 36 73 12 34 14 35 21 17 4 -12 14 -193 23 -403 8
-210 17 -418 20 -462 2 -44 7 -152 10 -240 3 -88 10 -227 15 -310 5 -82 14
-278 20 -435 5 -157 12 -305 15 -330 2 -25 7 -110 11 -190 3 -80 8 -148 10
-151 1 -3 5 -104 9 -225 3 -120 7 -246 10 -279 15 -194 35 -683 35 -857 l0
-158 2951 0 2952 0 -6 348 c-8 412 -20 665 -46 937 -11 110 -22 252 -25 315
-4 63 -11 147 -16 185 -6 39 -27 207 -46 375 -19 168 -39 341 -44 385 -5 44
-10 334 -11 645 -2 311 -6 632 -10 715 -6 110 -5 151 4 157 23 14 42 -43 117
-357 23 -93 52 -204 65 -245 76 -244 141 -475 151 -540 3 -19 9 -46 14 -60 5
-14 14 -52 21 -85 7 -33 14 -67 16 -75 2 -8 8 -43 12 -77 8 -58 30 -111 59
-141 6 -7 12 -17 12 -22 0 -5 12 -10 28 -12 19 -2 27 -9 27 -23 0 -15 10 -21
45 -29 26 -5 37 -11 27 -14 -18 -4 -18 -4 0 -18 17 -13 17 -15 -1 -29 -24 -18
-16 -19 19 -3 32 14 45 3 19 -17 -18 -14 -17 -14 9 -5 36 13 47 12 25 -1 -22
-12 -23 -29 -3 -29 8 0 15 -9 15 -19 0 -11 5 -23 10 -26 7 -5 8 -11 1 -19 -5
-6 -12 -24 -15 -40 -4 -23 -3 -26 9 -16 22 18 41 8 22 -12 -10 -10 -12 -19 -6
-25 6 -6 4 -14 -6 -23 -17 -14 -21 -35 -4 -25 16 11 5 -65 -16 -105 -10 -19
-20 -44 -21 -55 -4 -30 -32 -106 -50 -138 -8 -15 -14 -37 -13 -50 1 -12 -3
-33 -8 -47 -6 -14 -9 -29 -6 -33 3 -4 -1 -14 -7 -22 -6 -8 -9 -19 -5 -25 4 -6
1 -17 -5 -25 -9 -11 -10 -19 -1 -28 6 -8 8 -17 4 -21 -8 -8 -11 -23 -18 -91
-3 -27 -10 -63 -16 -78 -10 -23 -9 -30 6 -41 11 -8 15 -18 10 -26 -4 -6 -9
-44 -12 -84 -5 -89 -5 -96 -4 -121 0 -11 1 -29 0 -40 0 -11 2 -36 4 -55 2 -19
0 -40 -5 -46 -5 -7 -4 -22 1 -37 10 -26 3 -65 -18 -105 -6 -11 -7 -22 -2 -24
4 -2 11 -24 14 -50 5 -34 3 -49 -8 -58 -21 -18 -20 -54 1 -46 15 6 16 -2 11
-68 -3 -41 -10 -83 -15 -93 -10 -18 -18 -241 -14 -391 l2 -72 475 0 c393 1
475 3 475 14 0 8 -7 17 -16 20 -13 5 -15 15 -11 46 3 24 1 40 -5 40 -6 0 -8
11 -4 24 3 13 2 26 -3 28 -11 4 -2 68 10 68 5 0 9 -7 9 -16 0 -19 30 -87 43
-95 5 -4 1 -11 -9 -17 -18 -10 -18 -11 0 -31 24 -27 36 -27 36 1 0 20 1 20 18
5 20 -18 42 -22 42 -9 0 14 -23 32 -41 32 -18 0 -28 28 -35 90 -3 19 -6 41 -9
47 -5 15 -47 12 -89 -6 -34 -14 -48 -5 -39 28 5 19 11 22 34 17 35 -7 36 -2 6
27 -13 12 -29 32 -36 44 -10 19 -9 23 4 23 8 0 15 -5 15 -10 0 -6 6 -5 14 2
19 18 9 29 -20 22 -18 -5 -24 -2 -24 11 0 13 6 16 21 12 13 -3 22 0 26 9 4 12
13 8 39 -17 22 -21 34 -28 34 -18 0 7 7 22 15 32 13 18 14 18 34 -2 12 -12 20
-24 19 -28 -1 -5 7 -10 16 -11 13 -3 16 0 11 9 -5 7 -4 10 3 6 5 -4 8 -16 5
-26 -4 -16 -1 -19 15 -15 21 6 30 -12 38 -77 3 -27 1 -38 -11 -42 -12 -5 -13
-12 -5 -33 8 -20 8 -29 -1 -34 -7 -5 -8 -10 -1 -14 6 -3 9 -17 6 -30 -3 -20
-1 -23 16 -19 28 7 25 -11 -5 -27 -13 -7 -22 -17 -19 -21 3 -5 -3 -6 -12 -2
-14 5 -16 2 -12 -15 4 -12 2 -20 -3 -16 -5 3 -9 -2 -9 -10 0 -13 14 -16 80
-16 l80 0 0 30 c0 36 24 193 46 300 10 46 13 94 9 124 -4 32 -2 52 5 56 7 4
13 47 16 103 3 57 11 111 21 134 10 22 18 74 20 123 7 176 11 226 23 255 13
33 5 155 -11 155 -5 0 -9 -11 -9 -25 0 -29 0 -28 -16 -75 -9 -25 -18 -34 -31
-32 -16 3 -15 1 3 -12 16 -11 20 -23 17 -48 -2 -18 -4 -41 -5 -50 -1 -10 -8
-18 -15 -18 -7 0 -13 -11 -13 -24 0 -38 -17 -40 -25 -3 -4 17 -7 38 -6 45 1 6
-5 12 -14 12 -8 0 -15 8 -15 18 0 10 -5 23 -11 29 -8 8 -8 13 0 17 18 11 13
36 -11 57 -31 25 -36 24 -30 -7 3 -20 -2 -32 -22 -49 -17 -14 -24 -28 -20 -39
9 -23 -17 -29 -65 -16 -28 7 -39 15 -34 23 4 7 6 22 5 33 -4 32 23 37 39 8 7
-14 20 -23 28 -22 19 4 31 49 18 66 -6 8 -5 12 4 12 8 0 -4 9 -26 19 -56 25
-82 56 -65 76 7 8 9 15 5 15 -4 0 0 11 9 24 8 14 12 26 7 28 -5 2 -12 14 -16
27 -6 21 -5 23 13 19 16 -5 19 -2 15 11 -3 9 -11 23 -17 31 -14 20 -36 58 -36
65 0 2 11 0 24 -5 33 -12 39 -2 16 28 -24 30 -26 44 -5 36 8 -4 15 -14 15 -24
0 -22 28 -34 45 -20 10 8 17 5 29 -11 14 -20 16 -21 22 -5 7 19 -32 62 -76 84
-51 26 -75 42 -62 42 23 0 12 16 -19 27 -17 7 -28 17 -24 22 3 6 0 11 -8 11
-19 0 -52 41 -54 68 -2 21 2 23 23 18 14 -4 24 -2 24 5 0 6 7 18 16 26 10 10
13 25 10 39 -9 35 7 29 57 -21 42 -42 67 -56 67 -37 0 4 -22 30 -50 57 -45 45
-52 61 -40 95 7 17 -5 48 -26 68 -13 13 -24 29 -24 37 0 8 -4 15 -8 15 -11 0
-42 55 -42 74 0 9 8 20 18 23 9 4 22 14 28 22 15 20 -9 40 -49 41 -16 0 -26 4
-22 10 6 9 -16 15 -39 11 -5 -1 -6 5 -3 14 4 8 2 15 -3 15 -6 0 -10 7 -10 15
0 21 -20 19 -21 -2 0 -12 -2 -13 -6 -5 -3 7 0 19 7 27 7 9 9 26 5 46 -7 30 -6
31 21 25 23 -5 33 -1 47 19 17 24 17 25 0 31 -56 18 -65 24 -53 39 8 10 8 19
1 33 -20 37 27 46 52 10 16 -23 16 -22 12 12 -3 19 -3 29 1 23 3 -7 12 -13 20
-13 8 0 14 -9 14 -20 0 -11 5 -20 10 -20 6 0 10 6 10 14 0 8 -4 18 -10 21 -5
3 -10 17 -10 30 0 13 -5 27 -11 31 -6 3 -9 15 -6 25 3 10 -5 30 -19 46 -30 35
-30 43 1 43 16 0 28 7 31 18 13 41 29 62 45 62 10 0 21 5 25 12 5 7 1 9 -13 6
-12 -3 -27 -2 -34 3 -10 6 -6 11 15 18 27 11 32 39 5 33 -8 -1 -5 5 6 13 18
14 17 15 -14 9 -25 -5 -32 -4 -27 4 4 7 16 12 26 12 30 0 35 21 10 40 l-23 17
33 12 c18 6 45 11 59 12 25 0 26 1 4 11 -15 7 -21 19 -21 39 1 16 5 29 10 29
5 0 7 4 3 9 -3 5 0 13 6 17 6 3 7 9 3 13 -5 3 -18 16 -28 29 -18 21 -18 23 -1
42 10 11 14 20 9 20 -5 0 -2 4 6 10 12 7 11 10 -5 16 -11 4 -23 13 -27 20 -5
7 -17 10 -28 7 -11 -3 -20 0 -20 6 0 6 3 11 8 11 4 0 8 13 9 30 2 23 -8 39
-42 75 -27 27 -45 39 -45 30 0 -8 -5 -15 -10 -15 -15 0 -23 27 -14 48 4 9 8
19 8 22 1 3 5 11 10 18 4 7 3 19 -4 27 -6 8 -9 19 -5 25 4 7 -2 14 -13 17 -13
3 -22 17 -27 40 -6 31 -9 34 -32 28 -31 -7 -63 18 -63 50 0 18 -5 21 -24 18
-32 -6 -60 33 -50 71 6 24 5 25 -27 16 -60 -18 -79 -13 -86 20 -4 21 -13 32
-29 36 -24 6 -33 24 -12 24 6 0 8 3 4 7 -3 4 -29 6 -57 4 l-52 -3 7 39 c12 66
27 90 65 101 19 6 38 9 42 6 11 -7 49 32 41 42 -4 4 1 4 11 1 12 -5 16 -3 11
5 -5 7 2 9 22 5 21 -4 33 0 46 16 10 11 16 22 14 25 -8 7 -46 -9 -41 -18 3 -4
-3 -6 -12 -4 -10 3 -38 -2 -63 -11 -41 -15 -100 -33 -235 -69 -96 -27 -239
-46 -337 -46 -55 0 -97 4 -94 8 3 5 -4 15 -15 22 -10 8 -19 23 -19 33 0 14 -5
17 -16 13 -12 -4 -15 -2 -10 9 3 8 0 14 -7 12 -7 -1 -12 7 -12 18 0 11 -8 23
-17 27 -26 11 -22 28 7 28 14 0 25 5 25 11 0 6 -9 9 -20 6 -11 -3 -23 -1 -26
4 -3 5 11 9 31 9 88 0 367 60 430 93 10 5 76 30 145 54 69 24 148 53 175 63
225 82 595 280 612 328 4 9 13 21 20 25 11 6 11 12 3 22 -8 9 -8 15 0 20 15 9
12 28 -3 22 -9 -3 -13 2 -12 16 1 12 -1 27 -5 32 -4 6 -2 31 4 56 11 42 10 51
-9 85 -12 22 -31 43 -42 49 -22 9 -37 51 -22 61 14 8 10 24 -6 24 -8 0 -15 5
-15 10 0 6 5 10 10 10 6 0 10 11 10 24 0 14 -4 28 -10 31 -5 3 -10 22 -10 41
0 19 -3 34 -8 34 -4 0 -7 18 -7 41 0 22 -6 44 -13 48 -7 4 -10 15 -6 24 3 9 2
17 -3 17 -5 0 -9 20 -8 45 2 31 -3 50 -16 63 -10 11 -16 31 -15 46 2 14 -3 31
-10 37 -8 6 -12 15 -9 19 7 11 -35 113 -53 127 -8 7 -12 18 -9 26 3 8 -1 27
-8 43 -13 28 -27 64 -30 74 -9 34 -19 50 -31 50 -10 0 -12 5 -7 12 4 7 6 26 4
43 -3 40 -41 145 -52 145 -5 0 -9 8 -9 18 0 22 -22 72 -32 72 -5 0 -8 14 -8
30 0 17 -4 30 -9 30 -5 0 -7 9 -4 20 4 13 0 20 -10 20 -17 0 -29 24 -21 43 3
8 -2 20 -11 27 -8 7 -15 17 -15 23 0 5 -8 16 -17 24 -10 8 -12 12 -5 8 6 -3
12 -1 12 4 0 6 -12 11 -27 11 -21 0 -24 3 -14 9 11 7 9 10 -10 14 -14 3 -8 5
13 3 35 -2 36 -1 20 15 -10 9 -29 16 -41 15 -13 -1 -26 5 -28 12 -3 6 3 12 13
12 25 0 45 31 29 46 -13 13 -55 8 -66 -8 -7 -10 -39 0 -39 13 0 5 14 9 31 9
17 0 28 4 24 10 -3 6 -1 10 4 10 18 0 12 18 -8 25 -10 3 -21 15 -24 25 -3 12
-14 20 -26 20 -28 0 -27 18 2 22 18 3 14 6 -18 16 -22 7 -49 19 -60 28 -19 15
-19 15 10 8 17 -4 31 -11 33 -15 2 -4 9 -6 17 -3 9 4 5 14 -16 35 -16 16 -29
36 -29 44 0 8 -8 15 -17 15 -16 1 -16 2 2 15 19 15 19 15 -4 31 -13 9 -20 22
-17 31 3 8 2 12 -3 9 -8 -5 -51 72 -51 93 0 6 -4 11 -8 11 -4 0 -13 14 -19 31
-7 18 -16 28 -23 24 -8 -5 -8 -11 1 -21 9 -11 8 -14 -5 -14 -10 0 -21 13 -27
29 -6 18 -21 34 -37 40 -21 7 -22 10 -8 10 18 1 18 3 -4 26 -13 14 -31 25 -39
25 -13 1 -12 3 3 15 19 15 19 15 -2 15 -12 0 -22 4 -22 8 0 5 15 7 33 5 l32
-3 -40 20 c-22 11 -34 20 -27 20 7 0 10 5 6 11 -3 6 0 15 7 20 11 7 11 9 1 9
-7 0 -15 -7 -18 -15 -4 -8 -10 -12 -16 -9 -5 3 -4 11 2 19 14 17 5 35 -16 35
-8 0 -12 4 -9 10 9 15 -14 50 -33 50 -14 0 -15 -2 -2 -10 11 -7 12 -12 3 -21
-8 -8 -16 -6 -31 9 -11 11 -17 23 -14 27 4 4 -2 5 -13 3 -11 -2 -19 -10 -17
-16 4 -20 -33 -14 -53 8 -11 12 -25 18 -34 15 -12 -5 -13 -3 -5 5 12 12 44 4
44 -11 0 -5 9 -9 20 -9 24 0 27 15 4 24 -9 3 -12 11 -8 18 5 8 2 9 -9 5 -10
-3 -17 -2 -17 3 0 6 -6 10 -13 10 -18 0 -49 34 -40 43 3 4 -1 7 -10 7 -21 0
-21 7 -2 27 14 14 14 17 -2 28 -10 7 -31 13 -47 13 -19 0 -24 -3 -15 -9 11 -7
10 -9 -3 -9 -10 0 -18 5 -18 10 0 6 -18 8 -45 5 -51 -6 -59 11 -15 32 22 10
23 11 5 12 -11 1 -32 7 -47 15 -15 8 -37 12 -50 9 -23 -5 -23 -5 -3 11 11 10
14 14 7 11 -7 -4 -22 1 -33 11 -19 17 -19 19 -2 25 12 5 7 7 -14 6 -33 -2 -47
-17 -16 -17 9 0 13 -3 10 -7 -4 -3 -2 -12 4 -19 9 -11 7 -15 -6 -20 -23 -9
-68 13 -59 29 4 6 -3 2 -15 -10 -12 -13 -27 -23 -34 -22 -8 0 -7 2 2 6 18 7
-35 53 -61 53 -12 0 -16 4 -12 12 5 7 1 9 -13 6 -16 -4 -19 -2 -16 13 3 11 0
19 -6 19 -6 0 -11 -7 -11 -15 0 -18 -14 -19 -40 -2 -17 10 -22 9 -30 -2 -6
-10 -12 -12 -22 -5 -17 13 -58 16 -58 3 0 -16 -29 -10 -39 10 -9 16 -7 18 23
16 18 -2 39 1 47 6 11 7 11 9 1 9 -7 0 -10 5 -7 10 3 6 2 10 -4 10 -5 0 -13
-4 -16 -10 -3 -5 -26 -7 -52 -4 -41 5 -45 3 -39 -13 6 -17 5 -17 -8 0 -15 20
-27 22 -24 5 2 -6 -5 -14 -16 -16 -16 -3 -18 0 -12 22 10 39 -11 31 -25 -9
-12 -33 -29 -47 -29 -25 0 6 -4 10 -10 10 -17 0 -11 -28 8 -33 12 -3 10 -6
-11 -12 -27 -7 -54 3 -30 12 8 3 11 14 7 29 -5 21 -3 24 19 24 48 0 35 15 -14
18 -55 3 -92 -5 -84 -18 3 -5 12 -7 20 -3 8 3 23 2 32 -1 25 -10 0 -23 -38
-21 -22 1 -28 -2 -27 -14 2 -10 -3 -15 -12 -13 -8 2 -40 4 -72 6 -31 1 -60 5
-64 9 -4 4 -17 7 -28 6 -19 -1 -19 -1 2 -7 13 -4 23 -11 22 -16 -1 -5 4 -13
12 -17 8 -5 -6 -8 -37 -8 -33 1 -42 3 -27 7 22 7 22 7 2 20 -13 8 -20 8 -20 1
0 -5 -5 -7 -12 -3 -7 4 -8 3 -4 -4 5 -8 0 -12 -13 -12 -12 0 -20 5 -19 12 2 6
-5 14 -16 16 -10 2 -16 0 -12 -6 7 -11 -41 -23 -61 -15 -22 9 -15 20 20 31
l32 10 -30 -1 c-16 -1 -41 -7 -54 -13 -18 -10 -27 -10 -36 -1 -18 17 0 34 19
18 12 -10 17 -9 25 8 12 21 0 37 -19 26 -5 -3 -10 0 -10 9 0 8 -6 17 -12 19
-8 3 -7 6 4 6 9 1 19 5 23 11 3 6 -5 6 -22 0 -15 -4 -44 -11 -63 -14 -34 -5
-35 -5 -10 9 22 12 23 14 8 20 -10 4 -15 11 -12 16 3 5 -2 9 -10 9 -9 0 -16 9
-16 20 0 11 -8 23 -17 26 -10 4 -36 15 -58 26 -30 15 -33 18 -12 14 16 -4 27
-2 27 4 0 5 -9 10 -20 10 -13 0 -18 5 -14 15 4 8 1 15 -5 15 -6 0 -11 -4 -11
-10 0 -5 -5 -10 -10 -10 -6 0 -8 11 -6 25 3 14 0 25 -6 25 -5 0 -8 6 -5 14 3
8 -1 17 -9 20 -8 3 -14 12 -14 21 0 8 -6 15 -12 15 -9 0 -8 4 2 10 12 8 11 10
-7 10 -28 0 -29 8 -5 27 9 8 12 12 5 9 -6 -4 -13 -1 -15 4 -3 10 -25 18 -57
19 -11 1 -10 5 5 17 14 11 16 17 6 21 -7 3 -21 14 -32 25 -13 14 -25 18 -42
13 l-23 -6 25 20 c23 19 24 21 5 22 -11 1 -24 1 -29 0 -5 -1 -6 5 -3 14 4 8 2
15 -4 15 -6 0 -9 7 -5 15 3 8 2 15 -3 15 -37 0 -15 -207 35 -330 8 -19 14 -46
14 -60 0 -89 -2 -108 -11 -136 -5 -18 -18 -39 -29 -49 -19 -17 -19 -16 -17 26
1 37 -1 44 -16 41 -10 -2 -24 4 -33 13 -14 13 -14 15 3 15 17 1 17 1 0 11 -14
8 -15 14 -7 24 14 17 -14 29 -39 16 -11 -6 -23 -6 -32 0 -12 8 -12 10 1 8 29
-3 41 1 35 11 -3 6 1 10 9 10 25 0 19 18 -11 34 -16 8 -24 15 -20 16 4 0 2 10
-5 23 -6 12 -13 28 -14 36 -2 7 -12 22 -23 32 -12 11 -21 25 -21 32 0 7 -13
18 -30 25 -16 8 -30 18 -30 23 0 15 20 10 26 -6 4 -8 11 -15 17 -15 5 0 2 9
-7 19 -17 18 -17 20 0 29 14 8 13 10 -9 10 -15 0 -27 -4 -27 -8 0 -5 -11 -3
-25 3 -32 15 -32 31 0 25 20 -4 23 -2 15 12 -5 10 -7 20 -4 23 3 3 -3 3 -14 1
-12 -4 -22 0 -25 10 -4 9 -2 16 3 16 23 0 7 20 -22 28 l-33 9 28 11 c15 7 27
14 27 18 0 3 -7 4 -15 0 -9 -3 -15 0 -15 9 0 18 21 20 38 3 8 -8 12 -8 12 -1
0 6 -8 14 -17 17 -13 6 -14 9 -5 15 9 6 3 13 -20 24 -18 9 -26 17 -18 17 13 0
13 1 0 10 -8 5 -12 12 -8 15 3 3 12 -1 21 -9 13 -14 15 -13 20 9 7 40 -4 76
-27 84 -21 8 -21 8 2 15 12 4 22 13 22 20 0 21 -12 27 -24 11 -10 -13 -13 -13
-24 5 -7 11 -9 20 -5 19 21 -4 33 3 33 17 0 11 -5 14 -17 10 -9 -4 -20 -1 -25
6 -12 20 -9 31 7 24 8 -3 15 -1 15 5 0 5 -10 14 -22 19 -13 5 -18 9 -13 9 6 1
9 21 6 47 -2 34 -6 43 -13 33 -7 -10 -8 -8 -5 9 3 12 2 22 -1 22 -13 0 -33 57
-26 74 4 10 0 18 -10 22 -9 3 -16 10 -16 16 0 12 -30 43 -30 31 0 -4 -4 -2 -8
5 -5 7 -11 9 -15 5z m1387 -2555 c-5 -7 -2 -9 8 -5 9 3 21 0 28 -6 10 -9 14
-9 17 0 6 17 66 -10 69 -31 1 -9 -2 -13 -8 -10 -7 4 -8 2 -4 -4 4 -7 13 -12
21 -12 8 0 17 -5 21 -11 4 -7 0 -9 -14 -5 -11 4 -23 3 -26 -3 -7 -10 37 -9 72
3 16 5 22 4 20 -5 -2 -7 18 -19 44 -28 47 -16 63 -31 33 -31 -24 0 -18 -19 10
-32 14 -6 25 -17 25 -23 0 -11 10 -24 50 -72 5 -7 10 -17 10 -23 0 -5 5 -10
11 -10 5 0 7 -5 4 -10 -4 -6 -1 -17 5 -25 14 -17 5 -18 -25 -5 -11 5 -15 9 -8
9 7 1 10 7 7 15 -3 9 -12 12 -21 9 -10 -4 -14 -2 -10 4 4 6 -4 14 -17 17 -18
4 -23 11 -19 26 4 15 0 20 -13 20 -35 1 -69 40 -46 53 4 2 1 2 -6 0 -8 -1 -20
-3 -28 -3 -9 0 -12 -5 -8 -12 4 -7 -2 -5 -13 5 -11 9 -25 17 -31 17 -7 0 -12
4 -12 10 0 5 -7 7 -15 4 -11 -5 -13 -2 -9 10 3 9 11 13 17 9 6 -3 7 -1 3 6 -4
6 -11 9 -16 6 -15 -9 -59 17 -53 32 3 8 0 13 -7 11 -7 -2 -15 3 -18 11 -3 10
0 12 14 8 18 -7 18 -6 0 8 -11 8 -25 15 -31 15 -12 0 -45 36 -45 49 0 5 -7 12
-16 15 -8 3 -12 10 -9 16 4 7 13 7 26 0 11 -6 16 -16 13 -22z m-962 -134 c11
-7 7 -306 -5 -329 -13 -28 -69 -85 -82 -85 -6 0 -20 -7 -31 -14 -17 -13 -1
-15 141 -14 87 0 170 4 182 9 13 5 23 5 23 0 0 -18 76 -25 352 -34 55 -2 87
31 84 86 -6 111 -29 313 -37 323 -11 14 37 26 70 17 18 -5 21 -11 16 -33 -8
-35 19 -263 36 -308 14 -36 12 -39 -28 -47 l-38 -8 33 -9 c17 -5 32 -12 32
-17 0 -16 52 -22 171 -22 118 1 149 -3 149 -20 0 -5 -54 -9 -120 -9 -98 0
-118 -2 -114 -14 3 -8 15 -16 26 -19 14 -4 19 -11 15 -21 -4 -9 -2 -16 3 -16
6 0 10 9 10 20 0 19 6 21 48 19 26 -1 54 1 62 5 9 4 24 0 35 -8 17 -13 18 -18
8 -35 -17 -27 -17 -28 12 -35 30 -8 32 -22 4 -31 -30 -10 -259 -7 -295 3 -16
5 -109 9 -205 8 -96 -1 -185 2 -199 7 -14 6 -131 11 -260 13 -355 5 -480 18
-480 50 0 8 4 14 9 14 5 0 12 17 16 38 4 20 11 43 17 50 8 9 4 12 -15 12 -25
0 -45 16 -33 27 6 7 89 6 131 -2 27 -4 27 -4 7 5 -46 20 -95 66 -113 105 -15
32 -19 66 -19 172 0 72 3 139 6 148 6 14 26 15 187 10 100 -4 185 -9 189 -11z
m163 -45 c19 2 65 -18 65 -28 0 -5 -5 -22 -10 -36 -8 -20 -15 -25 -28 -20 -9
4 -29 8 -44 10 -41 3 -35 -20 19 -74 43 -42 47 -51 51 -104 4 -50 1 -61 -18
-82 -27 -29 -72 -37 -125 -22 -47 13 -55 22 -55 65 0 31 21 45 35 22 7 -11 68
-14 78 -4 9 9 -10 41 -47 81 -40 45 -43 50 -50 100 -4 36 -2 46 23 72 18 19
39 31 55 31 14 0 26 6 27 13 0 6 4 4 8 -6 4 -10 11 -18 16 -18z m182 -109 c3
-127 9 -176 23 -185 12 -8 103 16 112 29 4 6 10 7 14 4 3 -4 -1 -14 -9 -22 -8
-9 -18 -29 -22 -46 -4 -16 -11 -33 -17 -36 -12 -8 -168 -7 -176 1 -3 3 -7 74
-8 158 -2 83 -6 163 -9 176 -8 30 9 42 55 39 l35 -3 2 -115z m219 108 c5 -7 9
-51 11 -98 3 -70 17 -177 35 -260 4 -18 -1 -20 -57 -20 l-45 0 2 38 c2 20 -1
71 -5 112 -4 41 -10 103 -13 138 -4 34 -11 65 -16 68 -5 3 -4 12 3 20 14 17
75 19 85 2z m468 -24 c21 -8 20 -23 -4 -54 -15 -20 -21 -23 -31 -12 -14 13
-59 17 -60 5 -11 -106 3 -251 27 -288 l16 -25 -56 0 -55 0 0 53 c1 28 -2 101
-6 160 l-8 109 -47 -7 -48 -7 -4 43 -4 42 132 -6 c72 -4 139 -10 148 -13z"/>
<path d="M8216 5745 c4 -10 14 -15 25 -12 10 3 27 -2 38 -9 17 -12 24 -12 41
-2 16 10 24 10 40 0 12 -7 26 -9 33 -5 19 12 40 13 53 2 8 -7 15 -6 20 2 5 9
11 7 21 -7 9 -12 16 -15 21 -8 12 19 78 24 100 8 13 -9 23 -11 27 -4 3 5 19
10 34 10 22 0 30 -5 33 -25 4 -20 2 -23 -12 -15 -20 11 -30 4 -30 -19 0 -12
11 -16 48 -16 l49 -1 -8 36 c-5 19 -9 38 -9 42 0 13 -64 20 -194 23 -72 1
-177 6 -234 10 -94 7 -102 6 -96 -10z"/>
<path d="M8500 8430 l-25 -7 28 -8 c15 -4 27 -13 27 -20 0 -7 20 -23 45 -35
25 -12 50 -31 56 -41 5 -10 14 -19 20 -19 6 0 25 -15 42 -32 18 -18 45 -41 60
-51 15 -10 25 -22 22 -27 -4 -6 -2 -10 4 -10 5 0 8 -9 6 -21 -3 -15 2 -23 16
-26 11 -3 18 -11 15 -19 -3 -9 0 -11 11 -7 11 4 14 2 9 -5 -4 -7 -1 -12 6 -12
8 0 20 -6 27 -12 6 -7 17 -13 24 -13 7 -1 11 -6 10 -12 -1 -6 12 -16 30 -23
70 -26 102 -47 99 -63 -2 -10 4 -17 13 -17 10 0 13 4 8 13 -4 6 5 4 20 -6 16
-10 34 -16 40 -14 18 6 49 -12 41 -25 -5 -7 -2 -8 5 -4 9 6 9 12 -3 25 -13 14
-13 20 -3 30 9 10 8 11 -7 5 -13 -5 -17 -4 -12 4 5 8 0 12 -13 12 -12 0 -21 5
-21 10 0 6 6 10 13 10 8 0 14 7 14 15 0 9 -9 15 -22 15 -29 0 -37 10 -22 28 9
13 9 14 0 8 -7 -4 -23 0 -35 8 -12 9 -31 13 -43 10 -15 -4 -22 -1 -22 10 0 13
3 13 15 4 12 -10 14 -9 11 7 -3 12 -15 22 -29 25 -24 5 -40 30 -19 30 5 0 7 5
4 10 -3 6 -18 10 -33 10 -18 0 -23 3 -14 9 10 6 5 12 -18 23 -17 8 -31 19 -30
24 1 5 -3 10 -9 12 -6 2 -11 -1 -11 -7 0 -6 -5 -11 -11 -11 -5 0 -7 5 -4 10 3
6 0 10 -7 10 -10 0 -9 3 2 10 11 7 9 11 -13 19 -16 6 -31 11 -33 11 -3 0 -19
14 -37 30 -22 21 -39 29 -55 27 -15 -3 -26 2 -33 14 -5 10 -28 23 -50 29 -29
8 -39 15 -35 26 6 16 -30 18 -74 4z"/>
<path d="M5791 8152 c-6 -2 -11 -8 -11 -13 0 -4 8 -5 18 -2 15 6 15 5 3 -10
-12 -15 -12 -17 1 -12 9 4 15 0 15 -9 0 -8 -5 -12 -12 -10 -6 3 -24 -6 -39
-20 -23 -19 -37 -23 -70 -20 -39 3 -40 3 -17 -10 15 -8 20 -16 12 -20 -6 -4
-11 -15 -11 -24 1 -15 3 -14 16 3 8 11 12 25 10 32 -7 18 4 16 25 -3 14 -13
16 -21 8 -35 -12 -24 -30 -25 -23 -1 5 15 4 15 -6 -1 -7 -10 -10 -20 -8 -23 4
-3 40 -11 61 -13 5 -1 5 -6 2 -12 -4 -6 -13 -8 -20 -5 -13 5 -30 -22 -20 -32
3 -3 5 0 5 7 0 7 4 10 9 7 4 -3 15 2 24 12 15 17 17 21 17 42 0 6 12 8 28 5
15 -3 21 -2 15 1 -15 7 -17 44 -3 44 6 0 10 7 10 15 0 15 9 18 40 16 8 0 5 5
-8 11 -13 6 -21 17 -18 25 3 7 2 13 -2 13 -4 0 -8 9 -9 20 -1 11 2 18 8 15 5
-4 9 -13 9 -21 0 -9 5 -12 12 -8 7 5 9 2 5 -9 -6 -16 20 -33 32 -21 3 4 0 9
-7 11 -6 3 -10 9 -6 14 3 5 0 9 -7 9 -6 0 -9 8 -7 18 4 16 -1 19 -32 18 -21 0
-43 -2 -49 -4z"/>
<path d="M2253 3760 c14 -11 29 -29 32 -40 4 -13 15 -20 30 -20 18 0 26 -7 31
-24 3 -13 19 -33 35 -45 16 -12 27 -26 24 -30 -11 -18 29 -21 48 -4 20 17 20
17 14 -1 -10 -25 8 -44 36 -39 16 3 25 -2 32 -19 6 -14 20 -24 37 -26 14 -2
32 -10 39 -19 11 -12 10 -17 -4 -24 -9 -6 -17 -15 -17 -21 0 -7 7 -6 18 3 18
15 108 19 130 5 16 -10 16 -30 -1 -23 -6 2 -18 -1 -24 -8 -10 -10 -8 -15 5
-20 16 -6 16 -7 1 -18 -9 -7 -20 -31 -24 -55 -8 -47 -19 -59 -40 -42 -11 10
-18 5 -35 -22 -11 -18 -20 -41 -20 -50 0 -10 -7 -18 -15 -18 -9 0 -15 9 -15
22 0 17 -3 19 -12 10 -10 -10 -10 -17 1 -34 11 -18 11 -20 -3 -15 -18 7 -20
-1 -7 -21 10 -17 -35 -66 -53 -59 -7 3 -18 -3 -24 -13 -9 -14 -8 -19 4 -24 8
-3 12 -11 9 -16 -5 -8 -11 -8 -19 -1 -7 6 -16 8 -19 4 -12 -11 -8 -23 8 -23
22 0 18 -16 -10 -44 -28 -28 -32 -46 -10 -46 29 0 14 -19 -17 -22 -34 -3 -55
-38 -24 -38 11 0 15 -7 12 -22 -2 -16 -11 -24 -30 -26 -14 -2 -24 -7 -21 -12
3 -5 19 -7 35 -3 33 6 37 -2 19 -41 -6 -13 -22 -27 -35 -30 -13 -4 -24 -11
-24 -16 0 -13 16 -13 43 1 19 9 19 8 -3 -11 -19 -16 -20 -20 -6 -16 13 5 17 2
12 -9 -3 -9 0 -15 10 -15 8 0 12 -4 9 -10 -3 -5 -3 -10 2 -11 4 0 19 -2 31 -3
24 -3 44 -24 36 -38 -3 -4 -12 -4 -20 -1 -20 7 -33 -12 -29 -42 1 -16 -5 -27
-22 -34 -29 -14 -24 -23 28 -53 23 -13 38 -27 35 -35 -3 -7 -1 -13 4 -13 6 0
10 4 10 9 0 5 7 12 16 15 9 3 12 2 9 -5 -4 -6 -1 -10 6 -8 28 3 39 -1 39 -16
0 -8 7 -15 15 -15 18 0 19 -12 3 -28 -9 -9 -9 -12 0 -12 7 0 12 -11 12 -24 0
-14 5 -28 10 -31 6 -3 10 -15 10 -26 0 -10 -4 -19 -10 -19 -5 0 -10 -5 -10
-10 0 -6 10 -8 24 -4 15 3 27 1 32 -8 4 -7 4 -10 -1 -6 -4 4 -14 0 -21 -10
-10 -14 -10 -21 3 -41 15 -23 14 -26 -8 -43 -19 -16 -20 -21 -8 -28 11 -8 12
-13 1 -27 -7 -10 -15 -26 -18 -35 -3 -9 -13 -19 -22 -23 -13 -5 -12 -8 6 -21
22 -15 21 -36 -1 -33 -44 5 -67 -2 -67 -21 0 -27 24 -25 43 2 13 19 16 20 16
6 1 -10 -13 -30 -29 -45 -33 -29 -33 -41 -1 -23 18 9 21 8 21 -7 0 -13 5 -10
20 12 l20 30 0 -26 c0 -25 -23 -61 -73 -115 -17 -18 -25 -35 -21 -44 15 -34
15 -70 1 -98 -8 -17 -11 -35 -7 -42 11 -18 -15 -82 -40 -95 -23 -12 -23 -13
13 -26 20 -7 37 -19 37 -26 0 -6 8 -17 18 -22 16 -10 16 -10 0 -11 -10 0 -18
-4 -18 -10 0 -5 -5 -10 -12 -10 -6 0 -8 3 -5 7 11 10 -13 33 -35 33 -15 0 -17
-4 -9 -18 7 -13 7 -22 0 -29 -13 -13 -1 -43 17 -43 8 0 11 -6 7 -17 -4 -11 -3
-14 5 -9 18 11 14 -3 -9 -36 -20 -28 -25 -30 -71 -26 -28 3 -44 2 -36 -3 10
-6 10 -11 0 -21 -6 -6 -12 -21 -12 -32 0 -18 1 -18 18 -3 24 22 29 21 35 -3 3
-13 0 -20 -9 -20 -8 0 -14 -7 -14 -15 0 -8 -4 -15 -10 -15 -5 0 -10 -4 -10
-10 0 -5 7 -10 15 -10 8 0 15 -4 15 -10 0 -5 -9 -10 -19 -10 -10 0 -22 -7 -25
-16 -3 -8 -9 -13 -14 -10 -4 2 -14 1 -21 -3 -10 -6 -9 -12 4 -24 19 -19 12
-39 -10 -30 -11 3 -15 -2 -15 -18 0 -27 86 -113 102 -103 7 5 9 1 5 -9 -3 -9
-1 -18 6 -20 9 -3 9 -9 -1 -26 -11 -19 -10 -21 12 -21 26 0 47 21 28 28 -14 4
-16 22 -2 22 16 0 28 -34 23 -63 -6 -30 -23 -37 -23 -9 -1 16 -1 16 -14 -1
-11 -14 -15 -15 -19 -5 -3 7 -6 3 -6 -9 -1 -12 6 -26 15 -31 11 -6 14 -16 9
-31 -8 -25 -22 -27 -28 -3 -4 16 -5 16 -6 0 -1 -11 12 -23 32 -32 17 -8 26
-15 19 -15 -7 -1 -10 -6 -7 -12 10 -15 -27 -40 -42 -27 -17 14 -53 -8 -54 -35
-8 -123 -13 -160 -25 -182 -6 -11 -9 -38 -7 -60 2 -22 5 -62 7 -88 2 -26 7
-51 11 -55 4 -4 5 7 2 23 -5 26 -4 25 13 -10 11 -22 19 -47 19 -55 0 -8 -5 -4
-11 10 -9 20 -12 22 -15 8 -2 -9 2 -27 9 -40 7 -13 13 -27 14 -33 1 -18 40
-96 45 -90 3 3 4 -9 1 -25 l-4 -30 296 0 c256 0 296 2 296 15 0 18 -36 20 -43
3 -7 -21 -26 3 -33 42 -5 34 -5 34 11 15 16 -19 17 -19 10 12 -7 37 3 47 29
28 13 -10 17 -22 14 -40 -4 -17 -1 -25 8 -25 10 0 14 13 14 41 0 24 -4 38 -10
34 -5 -3 -10 -3 -10 0 0 7 26 35 32 35 2 0 12 -20 23 -45 11 -25 23 -45 28
-45 4 0 7 -9 7 -19 0 -53 -13 -51 334 -51 361 1 332 -6 307 75 -17 56 -28 81
-62 147 -33 65 -38 91 -10 57 l20 -24 -6 23 c-3 12 -9 25 -14 28 -5 3 -9 15
-9 28 0 12 -4 26 -9 31 -5 6 -12 33 -15 60 -10 86 -18 125 -27 131 -5 3 -9 19
-9 35 0 20 -4 28 -12 23 -6 -4 -8 -3 -5 3 3 5 0 31 -7 58 -8 31 -15 45 -20 37
-4 -7 -2 -19 4 -27 6 -8 10 -22 7 -32 -3 -15 -6 -14 -14 7 -11 27 -11 129 0
147 8 12 -8 63 -19 63 -3 0 -4 -14 -2 -30 3 -17 1 -30 -3 -30 -9 0 -25 77 -21
104 1 10 -3 25 -10 33 -7 8 -13 42 -14 75 0 36 -6 63 -14 68 -7 4 -10 12 -6
18 3 6 2 22 -3 36 -6 14 -12 43 -15 65 -3 22 -9 48 -15 58 -5 10 -12 39 -16
63 -6 45 -30 135 -46 178 -5 13 -9 34 -9 47 0 13 -5 25 -11 27 -6 2 -18 37
-26 77 -8 41 -24 95 -35 120 -23 55 -68 220 -74 276 -3 22 -9 63 -14 90 -11
66 -3 224 16 300 31 126 88 257 203 470 124 229 306 604 297 612 -2 2 -33 -5
-69 -16 -109 -33 -212 -51 -299 -51 -167 0 -521 66 -683 127 -85 33 -250 112
-345 167 -54 31 -73 34 -37 6z"/>
<path d="M1138 1853 c-22 -6 -47 -61 -46 -101 1 -19 11 -43 24 -57 20 -21 38
-60 36 -75 0 -3 6 -12 13 -20 7 -8 19 -34 27 -57 7 -24 16 -43 20 -43 4 0 10
-16 14 -35 3 -19 10 -35 14 -35 10 0 40 -57 40 -75 0 -7 10 -27 23 -46 12 -19
23 -43 24 -54 1 -11 13 -56 27 -100 14 -44 26 -90 26 -102 0 -12 5 -25 10 -28
29 -18 -8 -162 -43 -167 -14 -2 -25 -14 -30 -33 -5 -16 -14 -38 -19 -48 -6
-13 -5 -23 4 -34 10 -12 9 -17 -5 -28 -9 -7 -17 -18 -17 -26 0 -8 -7 -23 -15
-33 -19 -26 -19 -36 1 -36 13 0 14 -3 4 -14 -9 -12 -3 -27 32 -78 53 -77 66
-99 73 -118 7 -18 59 -44 77 -38 7 3 32 -4 56 -14 23 -11 47 -16 54 -12 6 4 8
3 4 -4 -3 -6 3 -13 14 -17 11 -3 20 -10 20 -16 0 -5 18 -12 40 -15 22 -4 40
-10 40 -15 0 -20 34 -7 66 26 39 41 56 86 74 197 7 43 17 75 21 72 5 -3 12 8
15 25 4 17 13 36 20 42 8 6 14 29 14 51 0 35 21 83 43 99 5 4 4 10 -2 13 -6 4
-11 12 -11 17 0 6 5 7 10 4 6 -3 10 4 10 15 0 12 14 35 31 51 l31 29 23 -24
c12 -13 25 -40 29 -59 8 -42 36 -72 36 -38 0 28 -35 134 -61 186 -16 32 -26
40 -50 42 -17 1 -27 -2 -24 -7 4 -6 2 -10 -3 -10 -4 0 -7 19 -6 43 2 60 2 61
21 46 14 -12 16 -12 12 0 -3 8 -14 19 -25 25 -10 6 -21 12 -23 14 -3 1 4 9 15
17 19 14 18 15 -6 34 l-25 20 25 11 25 10 -27 -3 c-26 -4 -28 -2 -28 32 -1 35
-21 76 -33 65 -3 -4 -9 6 -13 21 -7 26 -8 27 -20 10 -11 -15 -14 -15 -14 -4 0
8 5 20 12 27 9 9 9 12 -2 12 -10 0 -16 12 -18 36 -1 19 -7 45 -13 56 -9 17 -8
18 9 9 16 -8 21 -7 26 5 9 23 7 36 -4 29 -14 -9 -92 44 -97 66 -4 13 -11 18
-23 14 -12 -4 -23 2 -32 14 -8 11 -26 25 -41 32 -15 7 -27 16 -27 21 0 4 -5 8
-11 8 -6 0 -25 10 -42 22 -18 13 -33 22 -34 20 -2 -1 -4 -2 -5 -1 -2 0 -14 2
-27 3 -14 2 -27 8 -29 14 -2 6 -19 14 -38 18 -19 3 -34 12 -34 19 0 7 -16 16
-35 19 -19 4 -35 11 -35 17 0 6 -21 19 -46 31 -37 16 -51 18 -70 9 -15 -6 -25
-7 -29 -1 -6 10 -18 11 -47 3z"/>
</g>
</svg>
